<svg width="636" height="459" viewBox="0 0 636 459" fill="none" xmlns="http://www.w3.org/2000/svg">
<path d="M318 458.238C493.615 458.238 635.98 450.838 635.98 441.71C635.98 432.583 493.615 425.183 318 425.183C142.385 425.183 0.0203857 432.583 0.0203857 441.71C0.0203857 450.838 142.385 458.238 318 458.238Z" fill="#F5F5F5"/>
<path d="M503.222 13.653C503.372 11.965 503.126 10.2675 502.498 8.66901C501.87 7.07056 500.875 5.60626 499.575 4.36968C498.275 3.1331 496.701 2.15142 494.951 1.48735C493.201 0.823289 491.315 0.491446 489.413 0.513011H262.388C258.395 0.563512 254.566 1.93825 251.652 4.36838C248.737 6.7985 246.945 10.1092 246.627 13.653L241.412 83.66L208.727 298.879C208.408 300.517 208.502 302.198 209.002 303.8C209.502 305.403 210.395 306.886 211.617 308.143C212.84 309.401 214.361 310.4 216.07 311.071C217.78 311.741 219.635 312.065 221.502 312.019H448.544C452.626 311.922 456.54 310.554 459.605 308.153C462.671 305.752 464.693 302.47 465.321 298.879L498.006 83.66L503.222 13.653Z" fill="#407BFF"/>
<path opacity="0.2" d="M503.222 13.653C503.372 11.965 503.126 10.2675 502.498 8.66901C501.87 7.07056 500.875 5.60626 499.575 4.36968C498.275 3.1331 496.701 2.15142 494.951 1.48735C493.201 0.823289 491.315 0.491446 489.413 0.513011H262.388C258.395 0.563512 254.566 1.93825 251.652 4.36838C248.737 6.7985 246.945 10.1092 246.627 13.653L241.412 83.66L208.727 298.879C208.408 300.517 208.502 302.198 209.002 303.8C209.502 305.403 210.395 306.886 211.617 308.143C212.84 309.401 214.361 310.4 216.07 311.071C217.78 311.741 219.635 312.065 221.502 312.019H448.544C452.626 311.922 456.54 310.554 459.605 308.153C462.671 305.752 464.693 302.47 465.321 298.879L498.006 83.66L503.222 13.653Z" fill="black"/>
<path d="M440.459 312.033H213.417C211.551 312.077 209.697 311.751 207.989 311.08C206.281 310.409 204.761 309.409 203.539 308.152C202.318 306.896 201.424 305.414 200.923 303.812C200.422 302.211 200.326 300.531 200.642 298.893L233.327 83.66H489.921L457.236 298.879C456.612 302.473 454.59 305.758 451.525 308.162C448.459 310.566 444.543 311.936 440.459 312.033V312.033Z" fill="#407BFF"/>
<path d="M481.344 0.439985H254.302C250.309 0.490485 246.481 1.86523 243.566 4.29535C240.652 6.72548 238.86 10.0362 238.542 13.58L233.327 83.66H489.921L495.12 13.653C495.285 11.9611 495.05 10.2572 494.431 8.65103C493.811 7.04484 492.82 5.57198 491.523 4.32727C490.225 3.08256 488.649 2.09361 486.896 1.4241C485.143 0.754584 483.251 0.419348 481.344 0.439985V0.439985Z" fill="#407BFF"/>
<path opacity="0.9" d="M246.004 66.5196L249.645 17.5658C249.812 15.6996 250.755 13.956 252.29 12.6762C253.825 11.3963 255.84 10.6721 257.943 10.6454H476.178C477.18 10.6321 478.174 10.8057 479.096 11.1549C480.018 11.5041 480.848 12.0212 481.532 12.673C482.216 13.3248 482.74 14.0968 483.069 14.9394C483.398 15.7821 483.526 16.6767 483.443 17.5658L479.802 66.5196C479.631 68.3845 478.687 70.1262 477.153 71.4054C475.619 72.6847 473.605 73.4099 471.504 73.44H253.269C252.268 73.4509 251.275 73.2758 250.354 72.9259C249.433 72.5759 248.604 72.0588 247.921 71.4075C247.237 70.7562 246.713 69.9851 246.383 69.1435C246.053 68.3018 245.924 67.4082 246.004 66.5196V66.5196Z" fill="white"/>
<g opacity="0.4">
<path opacity="0.4" d="M460.45 18.6608L457.974 20.7194C457.913 20.7719 457.841 20.8131 457.762 20.8407C457.684 20.8683 457.599 20.8816 457.515 20.88H444.395C444.302 20.8819 444.21 20.866 444.125 20.8332C444.04 20.8004 443.964 20.7516 443.903 20.6902L441.771 18.6462C441.681 18.5609 441.622 18.4542 441.599 18.3392C441.577 18.2241 441.593 18.1058 441.645 17.9987C441.698 17.8917 441.784 17.8005 441.894 17.7366C442.003 17.6726 442.132 17.6387 442.263 17.6388H460.024C460.157 17.6401 460.286 17.6772 460.394 17.7452C460.503 17.8131 460.585 17.9087 460.631 18.0194C460.678 18.1301 460.685 18.2506 460.653 18.3651C460.62 18.4796 460.55 18.5827 460.45 18.6608V18.6608Z" fill="#407BFF"/>
<path opacity="0.4" d="M456.973 56.6062H439.212C439.077 56.6064 438.945 56.5703 438.834 56.5027C438.722 56.4351 438.636 56.3391 438.586 56.2272C438.536 56.1153 438.526 55.9928 438.556 55.8755C438.586 55.7582 438.654 55.6516 438.753 55.5696L441.213 53.5256C441.34 53.4246 441.503 53.3676 441.672 53.365H454.792C454.887 53.3627 454.98 53.38 455.065 53.4155C455.151 53.451 455.226 53.5037 455.284 53.5694L457.433 55.6134C457.516 55.6972 457.571 55.8001 457.591 55.9103C457.612 56.0205 457.598 56.1336 457.55 56.2369C457.502 56.3402 457.423 56.4295 457.321 56.4948C457.219 56.5601 457.099 56.5987 456.973 56.6062V56.6062Z" fill="#407BFF"/>
<path opacity="0.4" d="M458.696 37.5239L457.433 38.5898C457.306 38.6908 457.143 38.7478 456.974 38.7504H441.574C441.483 38.7486 441.393 38.7303 441.31 38.6967C441.227 38.663 441.152 38.6146 441.091 38.5546C441.03 38.4945 440.983 38.4239 440.953 38.3471C440.923 38.2703 440.911 38.1889 440.918 38.108L441.082 36.0494C441.094 35.8983 441.171 35.7571 441.296 35.6541C441.42 35.5512 441.584 35.4941 441.754 35.4945H457.203C457.296 35.4936 457.387 35.51 457.472 35.5427C457.557 35.5754 457.633 35.6237 457.695 35.6844L458.745 36.6918C458.804 36.7489 458.849 36.816 458.879 36.889C458.908 36.962 458.921 37.0396 458.916 37.117C458.912 37.1945 458.89 37.2704 458.852 37.3403C458.814 37.4101 458.761 37.4726 458.696 37.5239V37.5239Z" fill="#407BFF"/>
<path opacity="0.4" d="M460.795 38.6482L459.499 54.46C459.487 54.5753 459.438 54.6851 459.357 54.7761C459.277 54.867 459.168 54.9351 459.045 54.9722C458.922 55.0093 458.789 55.0137 458.663 54.985C458.537 54.9563 458.423 54.8957 458.335 54.8104L456.219 52.7664C456.156 52.7061 456.107 52.6348 456.076 52.5569C456.045 52.479 456.032 52.3962 456.039 52.3138L457.006 40.5608C457.009 40.4855 457.029 40.4115 457.066 40.3436C457.103 40.2757 457.155 40.2154 457.22 40.1666L459.68 38.1226C459.782 38.0409 459.91 37.9891 460.047 37.9742C460.183 37.9593 460.321 37.982 460.443 38.0393C460.565 38.0966 460.663 38.1857 460.726 38.2946C460.789 38.4034 460.813 38.5268 460.795 38.6482Z" fill="#407BFF"/>
<path opacity="0.4" d="M462.32 19.8872L461.024 35.7428C461.015 35.8593 460.968 35.971 460.889 36.064C460.809 36.1569 460.701 36.2271 460.577 36.266C460.453 36.3048 460.319 36.3105 460.192 36.2824C460.065 36.2542 459.949 36.1936 459.86 36.1078L457.728 34.0492C457.67 33.9895 457.625 33.92 457.597 33.8448C457.569 33.7697 457.557 33.6902 457.564 33.6112L458.515 21.8582C458.531 21.7083 458.607 21.5684 458.728 21.464L461.188 19.4054C461.287 19.3225 461.412 19.2682 461.546 19.2495C461.68 19.2309 461.817 19.2488 461.94 19.301C462.062 19.3531 462.164 19.437 462.232 19.5416C462.3 19.6463 462.33 19.7667 462.32 19.8872V19.8872Z" fill="#407BFF"/>
</g>
<path opacity="0.4" d="M432.013 63.22C432.065 62.6748 432.342 62.1662 432.79 61.7916C433.238 61.417 433.826 61.203 434.44 61.1906H462.32C462.646 61.1879 462.969 61.2452 463.268 61.359C463.568 61.4727 463.838 61.6405 464.062 61.8517C464.285 62.0629 464.457 62.3129 464.566 62.5861C464.676 62.8592 464.721 63.1496 464.698 63.439C464.645 63.9866 464.366 64.4973 463.915 64.8722C463.463 65.2471 462.872 65.4595 462.254 65.4684H434.44C434.109 65.4819 433.778 65.4323 433.47 65.3229C433.162 65.2135 432.884 65.0468 432.654 64.8339C432.424 64.6211 432.248 64.3669 432.137 64.0886C432.027 63.8103 431.984 63.5141 432.013 63.22Z" fill="#407BFF"/>
<path opacity="0.4" d="M397.146 63.22C397.199 62.6748 397.476 62.1662 397.924 61.7916C398.372 61.417 398.959 61.203 399.574 61.1906H427.454C427.779 61.1879 428.102 61.2452 428.402 61.359C428.702 61.4727 428.972 61.6405 429.195 61.8517C429.418 62.0629 429.59 62.3129 429.7 62.5861C429.809 62.8592 429.854 63.1496 429.832 63.439V63.439C429.779 63.9866 429.5 64.4973 429.048 64.8722C428.597 65.2471 428.005 65.4595 427.388 65.4684H399.508C399.182 65.4735 398.859 65.4177 398.559 65.3045C398.259 65.1914 397.988 65.0234 397.766 64.8115C397.543 64.5996 397.373 64.3484 397.266 64.0743C397.16 63.8001 397.119 63.5091 397.146 63.22V63.22Z" fill="#407BFF"/>
<path opacity="0.4" d="M362.28 63.22C362.332 62.6749 362.609 62.1662 363.057 61.7916C363.505 61.4171 364.093 61.203 364.707 61.1906H392.587C392.912 61.1899 393.233 61.2487 393.53 61.3634C393.828 61.4781 394.096 61.6461 394.318 61.8571C394.539 62.068 394.71 62.3174 394.818 62.5896C394.927 62.8617 394.971 63.1509 394.949 63.439V63.439C394.9 63.9878 394.622 64.5004 394.169 64.876C393.717 65.2515 393.124 65.4629 392.505 65.4684H364.625C364.301 65.4715 363.979 65.4142 363.681 65.3001C363.383 65.186 363.115 65.0177 362.894 64.8061C362.673 64.5944 362.504 64.3439 362.399 64.0708C362.293 63.7977 362.253 63.5079 362.28 63.22V63.22Z" fill="#407BFF"/>
<path opacity="0.4" d="M327.414 63.22C327.466 62.6749 327.743 62.1662 328.191 61.7916C328.639 61.4171 329.226 61.203 329.841 61.1906H357.721C358.045 61.1899 358.366 61.2487 358.664 61.3634C358.962 61.4781 359.23 61.6461 359.452 61.8571C359.673 62.068 359.843 62.3174 359.952 62.5896C360.061 62.8617 360.105 63.1509 360.082 63.439V63.439C360.033 63.9878 359.755 64.5004 359.303 64.876C358.851 65.2515 358.257 65.4629 357.639 65.4684H329.759C329.434 65.4715 329.113 65.4142 328.815 65.3001C328.516 65.186 328.248 65.0177 328.028 64.8061C327.807 64.5944 327.638 64.3439 327.532 64.0708C327.427 63.7977 327.386 63.5079 327.414 63.22V63.22Z" fill="#407BFF"/>
<path opacity="0.1" d="M250.415 183.48L260.682 115.926C261.065 113.712 262.31 111.688 264.198 110.207C266.086 108.726 268.498 107.882 271.014 107.823H346.897C348.048 107.795 349.192 107.995 350.245 108.408C351.299 108.822 352.236 109.438 352.99 110.214C353.743 110.989 354.293 111.904 354.601 112.892C354.909 113.88 354.966 114.916 354.769 115.926L344.502 183.48C344.123 185.693 342.882 187.717 340.996 189.198C339.111 190.679 336.7 191.523 334.187 191.583H258.287C257.136 191.611 255.993 191.411 254.939 190.998C253.885 190.584 252.948 189.968 252.195 189.192C251.441 188.417 250.891 187.502 250.583 186.514C250.276 185.527 250.218 184.49 250.415 183.48V183.48Z" fill="#263238"/>
<path opacity="0.1" d="M358.524 183.48L368.84 115.926C369.223 113.712 370.468 111.688 372.356 110.207C374.244 108.726 376.656 107.882 379.172 107.823H455.055C456.207 107.792 457.352 107.99 458.407 108.403C459.462 108.816 460.401 109.432 461.155 110.208C461.909 110.984 462.459 111.9 462.766 112.889C463.072 113.878 463.127 114.916 462.927 115.926L452.677 183.48C452.291 185.693 451.045 187.716 449.158 189.196C447.27 190.676 444.86 191.521 442.345 191.583H366.38C365.229 191.612 364.086 191.412 363.033 190.998C361.98 190.585 361.043 189.968 360.291 189.192C359.539 188.416 358.99 187.501 358.685 186.513C358.379 185.525 358.324 184.489 358.524 183.48V183.48Z" fill="#263238"/>
<path opacity="0.1" d="M235.803 279.723L246.07 212.14C246.456 209.927 247.701 207.905 249.589 206.424C251.476 204.944 253.887 204.099 256.402 204.037H332.284C333.436 204.009 334.579 204.209 335.633 204.622C336.687 205.036 337.624 205.652 338.377 206.428C339.131 207.203 339.681 208.118 339.989 209.106C340.296 210.094 340.354 211.13 340.156 212.14L329.89 279.709C329.507 281.919 328.264 283.939 326.379 285.418C324.494 286.896 322.086 287.738 319.574 287.797H243.675C242.527 287.825 241.387 287.625 240.336 287.213C239.285 286.802 238.35 286.188 237.597 285.416C236.844 284.644 236.293 283.733 235.983 282.749C235.673 281.764 235.611 280.731 235.803 279.723V279.723Z" fill="#263238"/>
<path opacity="0.1" d="M343.912 279.723L354.162 212.14C354.548 209.927 355.794 207.905 357.681 206.424C359.569 204.944 361.979 204.099 364.494 204.037H440.377C441.528 204.009 442.672 204.209 443.725 204.622C444.779 205.036 445.716 205.652 446.47 206.428C447.223 207.203 447.773 208.118 448.081 209.106C448.389 210.094 448.446 211.13 448.249 212.14L437.999 279.709C437.609 281.919 436.362 283.938 434.475 285.416C432.588 286.893 430.179 287.736 427.667 287.797H351.768C350.62 287.825 349.48 287.626 348.43 287.214C347.38 286.802 346.445 286.188 345.694 285.415C344.942 284.643 344.392 283.732 344.084 282.748C343.776 281.763 343.717 280.73 343.912 279.723V279.723Z" fill="#263238"/>
<path d="M245.364 183.48L255.68 115.926C256.063 113.712 257.308 111.688 259.196 110.207C261.084 108.726 263.496 107.882 266.012 107.823H341.895C343.046 107.795 344.19 107.995 345.243 108.408C346.297 108.822 347.234 109.438 347.988 110.214C348.741 110.989 349.291 111.904 349.599 112.892C349.907 113.88 349.964 114.916 349.767 115.926L339.5 183.48C339.121 185.693 337.88 187.717 335.994 189.198C334.109 190.679 331.698 191.523 329.185 191.583H253.236C252.085 191.611 250.942 191.411 249.888 190.998C248.834 190.584 247.897 189.968 247.143 189.192C246.39 188.417 245.84 187.502 245.532 186.514C245.225 185.527 245.167 184.49 245.364 183.48V183.48Z" fill="#407BFF"/>
<path opacity="0.2" d="M245.364 183.48L255.68 115.926C256.063 113.712 257.308 111.688 259.196 110.207C261.084 108.726 263.496 107.882 266.012 107.823H341.895C343.046 107.795 344.19 107.995 345.243 108.408C346.297 108.822 347.234 109.438 347.988 110.214C348.741 110.989 349.291 111.904 349.599 112.892C349.907 113.88 349.964 114.916 349.767 115.926L339.5 183.48C339.121 185.693 337.88 187.717 335.994 189.198C334.109 190.679 331.698 191.523 329.185 191.583H253.236C252.085 191.611 250.942 191.411 249.888 190.998C248.834 190.584 247.897 189.968 247.143 189.192C246.39 188.417 245.84 187.502 245.532 186.514C245.225 185.527 245.167 184.49 245.364 183.48V183.48Z" fill="white"/>
<path d="M353.473 183.48L363.723 115.926C364.107 113.712 365.351 111.688 367.239 110.207C369.127 108.726 371.54 107.882 374.055 107.823H449.938C451.09 107.792 452.235 107.99 453.29 108.403C454.346 108.816 455.284 109.432 456.038 110.208C456.792 110.984 457.342 111.9 457.649 112.889C457.955 113.878 458.01 114.916 457.81 115.926L447.56 183.48C447.174 185.693 445.928 187.716 444.041 189.196C442.153 190.676 439.743 191.521 437.228 191.583H361.329C360.178 191.612 359.035 191.412 357.982 190.998C356.929 190.585 355.992 189.968 355.24 189.192C354.488 188.416 353.939 187.501 353.634 186.513C353.328 185.525 353.273 184.489 353.473 183.48Z" fill="#407BFF"/>
<path opacity="0.2" d="M353.473 183.48L363.723 115.926C364.107 113.712 365.351 111.688 367.239 110.207C369.127 108.726 371.54 107.882 374.055 107.823H449.938C451.09 107.792 452.235 107.99 453.29 108.403C454.346 108.816 455.284 109.432 456.038 110.208C456.792 110.984 457.342 111.9 457.649 112.889C457.955 113.878 458.01 114.916 457.81 115.926L447.56 183.48C447.174 185.693 445.928 187.716 444.041 189.196C442.153 190.676 439.743 191.521 437.228 191.583H361.329C360.178 191.612 359.035 191.412 357.982 190.998C356.929 190.585 355.992 189.968 355.24 189.192C354.488 188.416 353.939 187.501 353.634 186.513C353.328 185.525 353.273 184.489 353.473 183.48Z" fill="white"/>
<path d="M230.752 279.723L241.018 212.14C241.405 209.927 242.65 207.905 244.537 206.424C246.425 204.944 248.836 204.099 251.35 204.037H327.233C328.384 204.009 329.528 204.209 330.582 204.622C331.636 205.036 332.573 205.652 333.326 206.428C334.079 207.203 334.63 208.118 334.937 209.106C335.245 210.094 335.302 211.13 335.105 212.14L324.839 279.709C324.456 281.919 323.213 283.939 321.328 285.418C319.443 286.896 317.034 287.738 314.523 287.797H238.624C237.476 287.825 236.336 287.625 235.285 287.213C234.234 286.802 233.298 286.188 232.546 285.416C231.793 284.644 231.242 283.733 230.932 282.749C230.622 281.764 230.56 280.731 230.752 279.723V279.723Z" fill="#407BFF"/>
<path opacity="0.2" d="M230.752 279.723L241.018 212.14C241.405 209.927 242.65 207.905 244.537 206.424C246.425 204.944 248.836 204.099 251.35 204.037H327.233C328.384 204.009 329.528 204.209 330.582 204.622C331.636 205.036 332.573 205.652 333.326 206.428C334.079 207.203 334.63 208.118 334.937 209.106C335.245 210.094 335.302 211.13 335.105 212.14L324.839 279.709C324.456 281.919 323.213 283.939 321.328 285.418C319.443 286.896 317.034 287.738 314.523 287.797H238.624C237.476 287.825 236.336 287.625 235.285 287.213C234.234 286.802 233.298 286.188 232.546 285.416C231.793 284.644 231.242 283.733 230.932 282.749C230.622 281.764 230.56 280.731 230.752 279.723V279.723Z" fill="white"/>
<path d="M338.861 279.723L349.16 212.14C349.546 209.927 350.792 207.905 352.679 206.424C354.567 204.944 356.977 204.099 359.492 204.037H435.375C436.526 204.009 437.67 204.209 438.723 204.622C439.777 205.036 440.714 205.652 441.468 206.428C442.221 207.203 442.771 208.118 443.079 209.106C443.387 210.094 443.444 211.13 443.247 212.14L432.997 279.709C432.607 281.919 431.36 283.938 429.473 285.416C427.586 286.893 425.177 287.736 422.665 287.797H346.716C345.569 287.825 344.429 287.626 343.379 287.214C342.328 286.802 341.394 286.188 340.642 285.415C339.891 284.643 339.341 283.732 339.033 282.748C338.725 281.763 338.666 280.73 338.861 279.723Z" fill="#407BFF"/>
<path opacity="0.2" d="M338.861 279.723L349.16 212.14C349.546 209.927 350.792 207.905 352.679 206.424C354.567 204.944 356.977 204.099 359.492 204.037H435.375C436.526 204.009 437.67 204.209 438.723 204.622C439.777 205.036 440.714 205.652 441.468 206.428C442.221 207.203 442.771 208.118 443.079 209.106C443.387 210.094 443.444 211.13 443.247 212.14L432.997 279.709C432.607 281.919 431.36 283.938 429.473 285.416C427.586 286.893 425.177 287.736 422.665 287.797H346.716C345.569 287.825 344.429 287.626 343.379 287.214C342.328 286.802 341.394 286.188 340.642 285.415C339.891 284.643 339.341 283.732 339.033 282.748C338.725 281.763 338.666 280.73 338.861 279.723Z" fill="white"/>
<path d="M293.269 177.815C292.119 177.838 290.979 177.635 289.928 177.22C288.877 176.804 287.942 176.188 287.19 175.414C286.438 174.64 285.887 173.727 285.577 172.742C285.267 171.756 285.206 170.722 285.397 169.712L291.481 129.708C291.87 127.495 293.116 125.473 295.002 123.99C296.889 122.508 299.298 121.659 301.813 121.591V121.591C302.965 121.565 304.109 121.767 305.163 122.182C306.216 122.597 307.153 123.215 307.906 123.992C308.659 124.768 309.209 125.684 309.517 126.672C309.825 127.661 309.882 128.698 309.685 129.708L303.617 169.712C303.224 171.925 301.975 173.946 300.085 175.426C298.196 176.906 295.784 177.751 293.269 177.815V177.815Z" fill="white"/>
<path d="M265.963 149.71C266.355 147.496 267.604 145.473 269.493 143.991C271.383 142.509 273.794 141.661 276.311 141.593H321.28C322.431 141.57 323.573 141.773 324.626 142.189C325.678 142.605 326.614 143.223 327.366 143.999C328.118 144.775 328.669 145.689 328.977 146.677C329.286 147.664 329.346 148.7 329.152 149.71V149.71C328.76 151.921 327.513 153.94 325.626 155.42C323.74 156.899 321.333 157.746 318.82 157.813H273.884C272.731 157.843 271.584 157.644 270.527 157.232C269.47 156.82 268.529 156.204 267.772 155.429C267.014 154.654 266.459 153.739 266.146 152.75C265.833 151.762 265.771 150.723 265.963 149.71V149.71Z" fill="white"/>
<path d="M257.582 265.81C254.516 262.656 255.303 257.502 259.321 254.349L295.401 226.054C299.419 222.9 305.241 222.9 308.275 226.054C311.342 229.207 310.554 234.376 306.536 237.529L270.456 265.81C266.438 268.963 260.6 268.963 257.582 265.81Z" fill="white"/>
<path d="M263.618 226.054C267.636 222.9 273.458 222.9 276.508 226.054L303.978 254.349C307.045 257.502 306.258 262.656 302.24 265.81C298.222 268.963 292.4 268.963 289.366 265.81L261.879 237.529C258.812 234.376 259.6 229.207 263.618 226.054Z" fill="white"/>
<path d="M374.055 149.71C374.448 147.496 375.696 145.473 377.586 143.991C379.475 142.509 381.887 141.661 384.404 141.593H429.34C430.491 141.567 431.635 141.769 432.689 142.184C433.743 142.599 434.68 143.217 435.433 143.994C436.186 144.77 436.736 145.686 437.043 146.674C437.351 147.663 437.408 148.7 437.212 149.71V149.71C436.819 151.921 435.572 153.94 433.686 155.42C431.8 156.899 429.392 157.746 426.88 157.813H381.96C380.808 157.841 379.663 157.64 378.608 157.227C377.554 156.814 376.615 156.198 375.859 155.423C375.103 154.648 374.55 153.734 374.238 152.747C373.926 151.759 373.864 150.722 374.055 149.71V149.71Z" fill="white"/>
<path d="M361.362 233.325C361.755 231.112 363.004 229.091 364.894 227.611C366.783 226.131 369.194 225.286 371.71 225.222H416.646C417.795 225.199 418.936 225.402 419.987 225.817C421.038 226.233 421.973 226.849 422.725 227.623C423.477 228.397 424.027 229.31 424.337 230.295C424.647 231.281 424.709 232.315 424.518 233.325V233.325C424.129 235.538 422.884 237.56 420.997 239.043C419.11 240.525 416.701 241.374 414.186 241.442H369.234C368.083 241.465 366.94 241.262 365.888 240.846C364.836 240.43 363.9 239.812 363.148 239.036C362.395 238.26 361.845 237.346 361.536 236.358C361.227 235.371 361.168 234.335 361.362 233.325Z" fill="white"/>
<path d="M357.54 258.539C357.933 256.328 359.18 254.309 361.066 252.83C362.952 251.35 365.36 250.504 367.872 250.436H412.808C413.959 250.411 415.102 250.613 416.155 251.027C417.207 251.441 418.144 252.057 418.898 252.832C419.652 253.606 420.204 254.519 420.515 255.506C420.826 256.493 420.888 257.528 420.697 258.539V258.539C420.304 260.753 419.056 262.776 417.166 264.258C415.277 265.74 412.865 266.589 410.348 266.656H365.412C364.261 266.682 363.117 266.48 362.063 266.065C361.009 265.65 360.072 265.032 359.319 264.255C358.566 263.479 358.016 262.564 357.709 261.575C357.401 260.586 357.344 259.549 357.54 258.539V258.539Z" fill="white"/>
<path d="M126.71 96.362C123.758 101.238 120.724 106.494 117.953 111.634C115.181 116.773 112.508 122.014 110.212 127.256C109.605 128.57 109.113 129.884 108.572 131.198C108.285 131.871 108.119 132.581 108.08 133.3C108.014 135.372 108.445 137.432 109.343 139.344C111.691 144.257 114.811 148.849 118.609 152.981L113.016 158.821C111.457 157.925 109.957 156.95 108.523 155.901C107.083 154.896 105.708 153.819 104.406 152.674C101.644 150.315 99.2252 147.657 97.2069 144.761C94.8575 141.439 93.3881 137.684 92.9101 133.782C92.6754 131.534 92.8808 129.266 93.5169 127.08C93.9761 125.62 94.4025 124.014 94.9273 122.511C96.9369 116.542 99.3634 110.69 102.192 104.991C103.603 102.173 105.046 99.3842 106.637 96.6394C108.228 93.8946 109.753 91.2374 111.655 88.4342L126.71 96.362Z" fill="#FF8B7B"/>
<path d="M116.28 151.302L124.48 153.229L118.379 163.785C118.379 163.785 112.278 161.712 110.77 156.937L116.28 151.302Z" fill="#FF8B7B"/>
<path d="M135.796 156.558L128.449 164.836L118.396 163.785L124.496 153.229L135.796 156.558Z" fill="#FF8B7B"/>
<path d="M165.382 40.6776C165.562 41.4952 166.202 42.0646 166.792 41.9624C167.382 41.8602 167.727 41.101 167.53 40.298C167.333 39.495 166.71 38.838 166.12 39.0132C165.529 39.1884 165.185 39.86 165.382 40.6776Z" fill="#263238"/>
<path d="M166.12 42.0792C167.771 44.3661 169.769 46.4393 172.056 48.2404C171.516 48.7389 170.861 49.1274 170.137 49.3794C169.412 49.6314 168.635 49.7409 167.858 49.7004L166.12 42.0792Z" fill="#FF5652"/>
<path d="M167.35 47.598C164.676 47.598 162.02 44.9992 161.216 41.4368C160.778 39.6982 160.909 37.8843 161.593 36.21C161.784 35.5205 162.19 34.8933 162.765 34.4012C163.34 33.9092 164.06 33.5725 164.842 33.4303C165.623 33.2881 166.434 33.3462 167.18 33.5979C167.926 33.8496 168.576 34.2846 169.055 34.8522C170.387 36.1771 171.298 37.7936 171.696 39.5358C172.094 41.278 171.963 43.083 171.318 44.7656C171.083 45.4386 170.658 46.0469 170.084 46.5324C169.51 47.018 168.806 47.3647 168.038 47.5396C167.811 47.5788 167.581 47.5984 167.35 47.598ZM165.578 33.7426C165.36 33.721 165.14 33.721 164.922 33.7426C164.229 33.9094 163.595 34.2299 163.079 34.6742C162.562 35.1184 162.181 35.6719 161.97 36.283C161.317 37.8926 161.191 39.6347 161.61 41.3054C162.446 44.9992 165.3 47.6126 167.989 47.1454C168.684 46.9824 169.321 46.6631 169.838 46.2183C170.355 45.7735 170.735 45.218 170.941 44.605C171.558 42.9895 171.682 41.2575 171.302 39.5853C170.922 37.913 170.05 36.3605 168.776 35.0858C168.37 34.6842 167.878 34.3586 167.329 34.128C166.78 33.8974 166.185 33.7664 165.578 33.7426V33.7426Z" fill="#263238"/>
<path d="M251.81 124.832L262.322 122.846L263.683 135.548C263.683 135.548 254.598 137.096 250.252 130.701L251.81 124.832Z" fill="#FF8B7B"/>
<path d="M272.26 125.693L271.588 134.964L263.683 135.548L262.322 122.846L272.26 125.693Z" fill="#FF8B7B"/>
<path d="M161.003 36.7794C160.936 36.7797 160.87 36.7683 160.808 36.7457C160.746 36.7232 160.689 36.69 160.642 36.648C160.589 36.6043 160.546 36.5512 160.517 36.4921C160.488 36.4331 160.473 36.3693 160.473 36.3049C160.473 36.2405 160.488 36.1767 160.517 36.1177C160.546 36.0586 160.589 36.0055 160.642 35.9618C161.216 35.3839 161.936 34.9365 162.744 34.6571C163.551 34.3777 164.422 34.2744 165.283 34.3558C165.355 34.3647 165.423 34.3862 165.485 34.4191C165.547 34.4519 165.601 34.4955 165.644 34.5472C165.687 34.5988 165.717 34.6576 165.734 34.72C165.751 34.7824 165.754 34.8472 165.742 34.9106C165.714 35.0385 165.633 35.152 165.514 35.228C165.395 35.304 165.248 35.3367 165.103 35.3194V35.3194C164.421 35.2596 163.733 35.3464 163.096 35.5725C162.46 35.7986 161.894 36.1574 161.446 36.6188C161.388 36.6716 161.32 36.7131 161.243 36.7408C161.167 36.7684 161.085 36.7816 161.003 36.7794V36.7794Z" fill="#263238"/>
<path d="M140.06 55.4528C141.7 62.9718 142.717 73.3816 136.78 78.3894C136.78 78.3894 139.076 86.0106 154.82 86.0106C172.073 86.0106 163.118 79.3238 163.118 79.3238C155.952 77.3382 156.017 70.082 157.657 64.242L140.06 55.4528Z" fill="#FF8B7B"/>
<path d="M157.772 76.5644C161.642 74.0824 167.366 71.177 168.563 74.2138C169.285 76.0388 169.58 84.9594 165.595 84.2878C159.707 83.3096 157.772 76.5644 157.772 76.5644Z" fill="#263238"/>
<path d="M133.582 83.4118C132.04 81.4846 132.106 75.3672 133.746 74.2868C136.386 72.5494 147.702 72.1406 162.954 75.265C161.314 81.1926 164.84 84.3024 164.84 84.3024L133.582 83.4118Z" fill="#407BFF"/>
<path d="M82.3156 430.03C82.781 430.177 83.2744 430.239 83.7671 430.214C84.2598 430.189 84.742 430.077 85.1856 429.884C85.3613 429.748 85.4821 429.565 85.5295 429.362C85.5769 429.159 85.5482 428.947 85.448 428.76C85.4025 428.602 85.3167 428.455 85.1972 428.331C85.0778 428.207 84.9279 428.109 84.7592 428.045C83.1192 427.373 79.6096 428.673 79.462 428.731C79.4131 428.749 79.3713 428.779 79.342 428.818C79.3128 428.857 79.2974 428.903 79.298 428.95C79.2949 428.997 79.3071 429.045 79.3333 429.086C79.3595 429.128 79.3984 429.161 79.4456 429.184C80.3694 429.548 81.3305 429.831 82.3156 430.03V430.03ZM84.2016 428.381L84.5132 428.483C84.6136 428.519 84.7039 428.574 84.7776 428.645C84.8513 428.716 84.9066 428.8 84.9396 428.892C85.0872 429.33 84.9396 429.476 84.8412 429.519C84.218 429.987 81.9056 429.519 80.2984 428.979C81.5334 428.524 82.8667 428.32 84.2016 428.381V428.381Z" fill="#407BFF"/>
<path d="M79.5112 429.198H79.6424C80.9544 428.848 83.7424 427.081 83.7752 425.928C83.7764 425.745 83.7071 425.566 83.5788 425.423C83.4505 425.28 83.271 425.18 83.07 425.14C82.8728 425.075 82.6619 425.049 82.4523 425.064C82.2427 425.079 82.0393 425.135 81.8564 425.227C80.3148 425.928 79.3471 428.76 79.3143 428.892C79.3044 428.923 79.3017 428.956 79.3062 428.989C79.3107 429.022 79.3225 429.053 79.3408 429.082C79.3591 429.11 79.3836 429.135 79.4128 429.155C79.4421 429.175 79.4755 429.19 79.5112 429.198V429.198ZM82.7912 425.563H82.906C83.2504 425.665 83.2504 425.811 83.2504 425.884C83.2504 426.57 81.3808 427.957 79.9704 428.512C80.322 427.372 81.054 426.354 82.0696 425.592C82.2913 425.501 82.5445 425.49 82.7748 425.563H82.7912Z" fill="#407BFF"/>
<path d="M167.481 431.753C168.973 431.753 170.4 431.563 170.876 430.979C170.995 430.822 171.059 430.636 171.059 430.446C171.059 430.256 170.995 430.071 170.876 429.914C170.782 429.771 170.657 429.647 170.507 429.549C170.358 429.451 170.187 429.381 170.006 429.344C168.088 428.877 164.053 430.921 163.889 431.009C163.841 431.033 163.801 431.07 163.775 431.114C163.749 431.158 163.737 431.207 163.742 431.257C163.753 431.307 163.781 431.353 163.822 431.39C163.863 431.426 163.915 431.451 163.971 431.461C165.129 431.651 166.303 431.749 167.481 431.753V431.753ZM169.318 429.753C169.492 429.737 169.668 429.737 169.842 429.753C170.065 429.799 170.258 429.919 170.384 430.089C170.58 430.395 170.498 430.541 170.384 430.629C169.842 431.3 166.923 431.315 164.791 431.038C166.194 430.355 167.73 429.919 169.318 429.753V429.753Z" fill="#407BFF"/>
<path d="M164.004 431.461H164.119C165.513 430.906 168.268 428.687 168.055 427.519C168.055 427.242 167.792 426.906 167.038 426.848C166.766 426.82 166.49 426.842 166.228 426.912C165.966 426.983 165.723 427.1 165.513 427.256C164.472 428.379 163.847 429.761 163.725 431.213C163.723 431.247 163.728 431.281 163.741 431.312C163.754 431.344 163.775 431.373 163.801 431.398C163.827 431.423 163.858 431.442 163.893 431.456C163.928 431.469 163.966 431.476 164.004 431.476V431.461ZM166.808 427.3H166.972C167.464 427.3 167.497 427.505 167.514 427.563C167.645 428.264 165.759 430.016 164.348 430.775C164.474 429.603 165.007 428.496 165.874 427.607C166.13 427.403 166.464 427.294 166.808 427.3V427.3Z" fill="#407BFF"/>
<path d="M151.31 431.228H162.856L164.004 407.444H152.458L151.31 431.228Z" fill="#FF8B7B"/>
<path d="M66.6536 426.468L77.9204 428.643L89.2528 406.495L77.9696 404.32L66.6536 426.468Z" fill="#FF8B7B"/>
<path d="M79.0028 427.636L66.342 425.198C66.1181 425.155 65.8846 425.181 65.6792 425.271C65.4739 425.361 65.3087 425.51 65.2104 425.694L60.8152 434.191C60.6982 434.397 60.6376 434.625 60.6384 434.855C60.6392 435.086 60.7013 435.313 60.8197 435.518C60.9381 435.723 61.1094 435.901 61.3196 436.035C61.5297 436.17 61.7727 436.259 62.0288 436.294C66.4732 437.068 68.6872 437.257 74.2468 438.323C77.6744 438.995 85.4152 440.674 90.1384 441.579C94.8616 442.484 96.5016 438.44 94.6648 437.695C86.4648 434.323 82.9224 431.359 80.692 428.6C80.2817 428.104 79.6801 427.761 79.0028 427.636V427.636Z" fill="#263238"/>
<path d="M162.774 430.03H150.179C149.949 430.029 149.726 430.098 149.547 430.225C149.368 430.353 149.244 430.532 149.195 430.731L146.915 439.9C146.848 440.121 146.841 440.352 146.892 440.576C146.944 440.799 147.054 441.009 147.214 441.188C147.373 441.367 147.578 441.51 147.811 441.606C148.044 441.702 148.299 441.748 148.555 441.74C153.098 441.667 159.674 441.433 165.382 441.433C172.056 441.433 177.829 441.754 185.668 441.754C190.392 441.754 191.72 437.491 189.736 437.097C180.699 435.345 173.336 435.155 165.546 430.877C164.728 430.371 163.768 430.078 162.774 430.03V430.03Z" fill="#263238"/>
<path d="M116.149 80.74C105.341 82.9446 96.4688 107.516 96.4688 107.516L118.182 122.248C123.793 116.914 127.749 110.374 129.662 103.268C133.369 90.3614 127.202 78.4624 116.149 80.74Z" fill="#407BFF"/>
<path opacity="0.4" d="M116.149 80.74C105.341 82.9446 96.4688 107.516 96.4688 107.516L118.182 122.248C123.793 116.914 127.749 110.374 129.662 103.268C133.369 90.3614 127.202 78.4624 116.149 80.74Z" fill="white"/>
<path d="M180.978 92.42L199.198 107.341C202.232 109.823 205.266 112.291 208.317 114.714C211.367 117.138 214.418 119.561 217.353 121.664L214.811 120.452C216.222 120.919 217.698 121.372 219.256 121.737C220.814 122.102 222.421 122.408 224.077 122.7C227.485 123.25 230.923 123.645 234.376 123.883C237.902 124.146 241.51 124.321 245.135 124.409C248.759 124.496 252.515 124.569 256.074 124.584L257.714 132.147C253.968 133.356 250.132 134.332 246.234 135.067C242.327 135.818 238.373 136.354 234.393 136.673C230.309 137.004 226.202 137.058 222.109 136.833C217.759 136.61 213.451 135.949 209.268 134.862L208.038 134.541L206.742 133.65C203.134 131.183 199.936 128.774 196.722 126.35C193.508 123.927 190.392 121.416 187.276 118.919C181.076 113.897 174.926 108.903 168.908 103.72L180.978 92.42Z" fill="#FF8B7B"/>
<path opacity="0.2" d="M125.415 98.7856C119.544 103.954 117.625 113.386 117.215 121.562L118.182 122.219C123.789 116.882 127.744 110.343 129.662 103.239C129.876 102.479 130.072 101.779 130.22 100.946L125.415 98.7856Z" fill="black"/>
<path d="M184.471 90.96C186.833 102.056 188.309 124.847 181.454 169.961H119.757C119.33 161.536 125.284 120.394 116.149 80.667C122.974 79.5003 129.876 78.7249 136.813 78.3456C145.552 77.8994 154.313 77.8994 163.053 78.3456C165.939 78.5792 168.776 78.9588 171.253 79.353C174.516 79.872 177.525 81.2589 179.885 83.3309C182.244 85.4029 183.843 88.0628 184.471 90.96Z" fill="#407BFF"/>
<path opacity="0.4" d="M184.471 90.96C186.833 102.056 188.309 124.847 181.454 169.961H119.757C119.33 161.536 125.284 120.394 116.149 80.667C122.974 79.5003 129.876 78.7249 136.813 78.3456C145.552 77.8994 154.313 77.8994 163.053 78.3456C165.939 78.5792 168.776 78.9588 171.253 79.353C174.516 79.872 177.525 81.2589 179.885 83.3309C182.244 85.4029 183.843 88.0628 184.471 90.96Z" fill="white"/>
<path opacity="0.2" d="M175.025 107.414L186.177 105.034C186.521 111.05 186.554 118.496 186.046 127.708C180.912 122.511 174.369 114.393 175.025 107.414Z" fill="black"/>
<path opacity="0.2" d="M164.004 407.444L163.414 419.708H151.868L152.458 407.444H164.004Z" fill="black"/>
<path opacity="0.2" d="M77.9696 404.32L89.2528 406.495L83.398 417.912L72.1312 415.737L77.9696 404.32Z" fill="black"/>
<path d="M134.566 44.4736C137.534 54.314 138.715 60.2124 145.538 64.3004C155.804 70.4616 168.498 63.3952 168.973 52.9562C169.334 43.5684 164.43 29.0414 152.573 27.0558C149.957 26.6069 147.256 26.7608 144.725 27.5029C142.195 28.2449 139.919 29.5505 138.115 31.2957C136.311 33.0408 135.038 35.1676 134.417 37.474C133.795 39.7804 133.847 42.1899 134.566 44.4736Z" fill="#FF8B7B"/>
<path d="M159.658 45.2182C164.84 44.5612 163.348 39.2322 161.413 36.6188C161.413 36.6188 172.893 24.2818 159.658 19.3032C146.423 14.3246 149.621 22.0918 149.621 22.0918C149.621 22.0918 139.24 15.1568 130.22 20.7632C121.2 26.3696 128.99 28.7932 128.99 28.7932C128.99 28.7932 112.59 33.0856 119.15 40.4732C125.71 47.8608 132.483 47.1162 132.483 47.1162C132.483 47.1162 118.888 51.8904 129.203 57.2486C139.519 62.6068 143.389 62.8404 143.389 62.8404C146.147 63.1458 148.937 62.5732 151.266 61.2239C153.595 59.8746 155.312 57.8356 156.116 55.4674L159.658 45.2182Z" fill="#263238"/>
<path d="M155.197 45.2474C155.419 47.7794 156.571 50.1758 158.477 52.0656C160.986 54.533 163.61 52.9854 164.07 49.9924C164.463 47.2768 163.643 42.6924 160.56 41.3784C157.477 40.0644 155 42.196 155.197 45.2474Z" fill="#FF8B7B"/>
<path d="M159.576 170.004C159.576 170.004 146.456 248.479 139.289 277.884C131.417 310.077 89.22 416.584 89.22 416.584L68.5724 412.598C68.5724 412.598 98.0924 325.786 104.652 280.775C109.736 246.202 119.724 169.975 119.724 169.975L159.576 170.004Z" fill="#263238"/>
<path d="M94.1728 410.466L90.3188 417.124L67.08 412.642L69.048 406.422L94.1728 410.466Z" fill="#407BFF"/>
<path opacity="0.3" d="M151.294 197.963C136.157 200.606 137.764 250.859 139.584 276.716C143.947 258.437 150.343 223.28 154.705 198.328C153.648 197.864 152.445 197.735 151.294 197.963V197.963Z" fill="black"/>
<path d="M181.454 170.004C181.454 170.004 183.094 246.786 181.798 278.044C180.486 310.617 167.71 417.27 167.71 417.27H148.162C148.162 417.27 147.456 312.515 146.522 280.526C145.636 245.72 140.88 170.004 140.88 170.004H181.454Z" fill="#263238"/>
<path d="M171.466 410.408C171.564 410.408 170.367 417.62 170.367 417.62H146.587L145.948 411.182L171.466 410.408Z" fill="#407BFF"/>
<path d="M160.298 94.3764C154.754 107.648 187.259 123.284 187.259 123.284L201.33 107.224C201.33 107.224 191.933 90.595 180.42 83.0906C166.185 73.7904 164.496 84.2732 160.298 94.3764Z" fill="#407BFF"/>
<path opacity="0.4" d="M160.298 94.3764C154.754 107.648 187.259 123.284 187.259 123.284L201.33 107.224C201.33 107.224 191.933 90.595 180.42 83.0906C166.185 73.7904 164.496 84.2732 160.298 94.3764Z" fill="white"/>
<path d="M253.646 128.847C255.874 128.847 257.681 127.638 257.681 126.146C257.681 124.654 255.874 123.445 253.646 123.445C251.418 123.445 249.612 124.654 249.612 126.146C249.612 127.638 251.418 128.847 253.646 128.847Z" fill="#263238"/>
<path d="M252.088 134.76C251.967 134.761 251.846 134.738 251.735 134.693C251.625 134.647 251.527 134.581 251.449 134.497C251.311 134.35 251.244 134.159 251.262 133.968C251.281 133.777 251.383 133.6 251.547 133.475C251.646 133.402 253.745 131.694 252.843 127.723C252.821 127.63 252.821 127.534 252.842 127.441C252.862 127.347 252.904 127.259 252.963 127.18C253.023 127.101 253.099 127.034 253.188 126.981C253.278 126.929 253.378 126.893 253.482 126.876C253.588 126.857 253.697 126.856 253.802 126.875C253.908 126.893 254.009 126.929 254.099 126.982C254.189 127.035 254.266 127.103 254.326 127.183C254.386 127.262 254.428 127.351 254.45 127.445C255.565 132.307 252.728 134.497 252.613 134.585C252.466 134.695 252.281 134.757 252.088 134.76V134.76Z" fill="#263238"/>
<path opacity="0.4" d="M256.926 126C256.926 127.11 255.467 128 253.646 128C251.826 128 250.366 127.11 250.366 126C250.366 124.89 251.826 124.014 253.646 124.014C255.467 124.014 256.926 124.847 256.926 126Z" fill="white"/>
<path d="M165.382 78.5061C157.838 83.3095 144.767 101.866 142.422 112.831C142.406 112.903 142.365 112.97 142.306 113.021C142.247 113.073 142.171 113.107 142.089 113.12C142.008 113.133 141.924 113.123 141.848 113.092C141.773 113.061 141.71 113.011 141.667 112.948C134.546 102.677 130.32 91.0263 129.351 78.9879C129.347 78.9399 129.332 78.8931 129.307 78.8502C129.283 78.8074 129.249 78.7692 129.208 78.738C129.167 78.7068 129.119 78.6831 129.068 78.6684C129.016 78.6537 128.962 78.6481 128.908 78.6521C127.071 78.7613 125.242 78.9612 123.43 79.2507C123.341 79.273 123.262 79.3207 123.206 79.3866C123.149 79.4525 123.119 79.5329 123.119 79.6157C124.009 94.6622 130.027 109.11 140.372 121.036C140.392 121.072 140.402 121.112 140.402 121.153C140.402 121.193 140.392 121.233 140.372 121.27C139.371 137.695 140.7 167.055 140.864 170.545C140.868 170.639 140.913 170.728 140.989 170.793C141.066 170.859 141.168 170.895 141.274 170.895H146.194C146.249 170.895 146.304 170.885 146.354 170.866C146.405 170.847 146.451 170.818 146.489 170.783C146.528 170.747 146.558 170.705 146.577 170.659C146.597 170.614 146.606 170.564 146.604 170.515C146.374 167.157 144.832 141.651 146.604 120.729C149.375 105.166 165.956 84.1271 171.778 79.9661C171.84 79.9246 171.887 79.8675 171.913 79.802C171.939 79.7366 171.943 79.6657 171.924 79.5984C171.904 79.5312 171.863 79.4705 171.805 79.4242C171.747 79.3779 171.674 79.348 171.597 79.3383C169.137 78.8565 166.316 78.5499 165.644 78.4915C165.557 78.4706 165.465 78.4757 165.382 78.5061Z" fill="#407BFF"/>
</svg>
