<svg width="115" height="50" viewBox="0 0 115 50" fill="none" xmlns="http://www.w3.org/2000/svg">
<path d="M0.117458 6.99542C-0.0168113 4.90385 1.41797 3.07047 3.44735 2.54671V2.54671C4.07085 2.38579 4.7212 2.35768 5.35625 2.46422L10.1055 3.26095C10.7986 3.37723 11.5057 3.38478 12.2012 3.28333L17.9474 2.44508C18.5949 2.35061 19.2528 2.35061 19.9003 2.44508L25.4596 3.25606C26.2771 3.3753 27.1094 3.34381 27.9155 3.16315L35.0151 1.57196C35.7715 1.40244 36.5513 1.36418 37.3207 1.45884L51.9565 3.25976C52.903 3.37623 53.8635 3.29126 54.7748 3.01041L62.7273 0.559804C63.9153 0.193691 65.1813 0.162055 66.3862 0.46837L76.6583 3.07984C77.5829 3.31491 78.5468 3.35174 79.4867 3.1879L88.9921 1.53093C89.8079 1.38871 90.643 1.39751 91.4556 1.55688L99.1767 3.07104C100.395 3.31002 101.656 3.20895 102.821 2.7789L104.91 2.00787C106.13 1.55736 107.46 1.49225 108.718 1.82135V1.82135C112.125 2.71212 114.158 6.20313 113.251 9.60561L111.984 14.3619C111.677 15.5125 111.68 16.7237 111.991 17.873L113.926 25.014C114.229 26.1314 114.24 27.3079 113.958 28.4307L111.887 36.6798C111.642 37.653 111.618 38.6684 111.814 39.6523L112.128 41.2224C113.007 45.6246 109.433 49.6466 104.958 49.291L97.3227 48.6842L82.668 46.7506C81.9664 46.658 81.2547 46.6761 80.5588 46.8042L64.5619 49.7479C63.6582 49.9142 62.7301 49.8947 61.8343 49.6905L49.6545 46.9143C48.776 46.714 47.8663 46.6913 46.9789 46.8474L30.5243 49.7427C29.5607 49.9122 28.5717 49.8707 27.6257 49.621L18.338 47.1697C16.9615 46.8064 15.5054 46.8867 14.1772 47.399L9.94498 49.0316C8.33929 49.6509 6.55184 49.5977 4.98588 48.8838V48.8838C2.1159 47.5754 0.729795 44.3703 0.972163 41.2255C1.37611 35.9841 0.107775 31.834 0.00639018 25.7842C-0.00207705 25.279 0.0592179 24.7742 0.162349 24.2795C1.64265 17.179 0.505906 13.0465 0.117458 6.99542Z" fill="url(#paint0_linear_28_4)"/>
<path d="M22.6985 35.1112C21.6522 35.1112 21.129 34.5701 21.129 33.4877V17.2254C21.129 16.143 21.6702 15.6018 22.7526 15.6018C23.2036 15.6018 23.5553 15.692 23.8079 15.8724C24.0785 16.0348 24.322 16.3234 24.5385 16.7383L30.789 28.2924L37.0396 16.7383C37.2561 16.3234 37.4906 16.0348 37.7432 15.8724C37.9957 15.692 38.3475 15.6018 38.7985 15.6018C39.8447 15.6018 40.3679 16.143 40.3679 17.2254V33.4877C40.3679 34.5701 39.8447 35.1112 38.7985 35.1112C37.7522 35.1112 37.229 34.5701 37.229 33.4877V22.0418L32.142 31.323C31.9616 31.6297 31.7722 31.8552 31.5737 31.9995C31.3753 32.1438 31.1047 32.216 30.762 32.216C30.4192 32.216 30.1396 32.1438 29.9232 31.9995C29.7067 31.8371 29.5173 31.6116 29.3549 31.323L24.2679 22.096V33.4877C24.2679 34.5701 23.7447 35.1112 22.6985 35.1112ZM51.3041 35.1654C50.348 35.1654 49.4911 34.985 48.7335 34.6242C47.9939 34.2454 47.4076 33.7403 46.9747 33.1089C46.5598 32.4775 46.3523 31.765 46.3523 30.9712C46.3523 29.9971 46.6049 29.2305 47.11 28.6712C47.615 28.094 48.4358 27.6791 49.5723 27.4265C50.7088 27.174 52.2331 27.0477 54.1452 27.0477H55.0923V26.4795C55.0923 25.5775 54.8939 24.9281 54.497 24.5312C54.1001 24.1344 53.4327 23.936 52.4947 23.936C51.9715 23.936 51.4033 23.9991 50.79 24.1254C50.1947 24.2516 49.5633 24.4681 48.8958 24.7748C48.4629 24.9732 48.1021 25.0003 47.8135 24.856C47.5249 24.6936 47.3264 24.4501 47.2182 24.1254C47.128 23.7826 47.146 23.4399 47.2723 23.0971C47.4166 22.7544 47.6962 22.5018 48.1111 22.3395C48.9409 21.9967 49.7347 21.7532 50.4923 21.6089C51.268 21.4646 51.9715 21.3924 52.6029 21.3924C54.5331 21.3924 55.9672 21.8434 56.9052 22.7454C57.8433 23.6293 58.3123 25.0093 58.3123 26.8854V33.3795C58.3123 34.534 57.7892 35.1112 56.7429 35.1112C55.6786 35.1112 55.1464 34.534 55.1464 33.3795V32.7842C54.8398 33.5238 54.3527 34.1101 53.6852 34.543C53.0178 34.9579 52.2241 35.1654 51.3041 35.1654ZM52.0076 32.8383C52.8915 32.8383 53.6221 32.5316 54.1994 31.9183C54.7947 31.305 55.0923 30.5293 55.0923 29.5912V28.996H54.1723C52.4766 28.996 51.295 29.1312 50.6276 29.4018C49.9782 29.6544 49.6535 30.1234 49.6535 30.8089C49.6535 31.4042 49.8609 31.8912 50.2758 32.2701C50.6907 32.6489 51.268 32.8383 52.0076 32.8383ZM70.5124 35.1654C67.0128 35.1654 65.263 33.4336 65.263 29.9701V24.2065H63.856C62.954 24.2065 62.503 23.7826 62.503 22.9348C62.503 22.0869 62.954 21.663 63.856 21.663H65.263V19.2007C65.263 18.0642 65.8313 17.496 66.9677 17.496C68.0862 17.496 68.6454 18.0642 68.6454 19.2007V21.663H71.5136C72.4156 21.663 72.8666 22.0869 72.8666 22.9348C72.8666 23.7826 72.4156 24.2065 71.5136 24.2065H68.6454V29.7807C68.6454 30.6465 68.8348 31.296 69.2136 31.7289C69.5924 32.1618 70.2058 32.3783 71.0536 32.3783C71.3603 32.3783 71.6309 32.3512 71.8654 32.2971C72.0999 32.243 72.3073 32.2069 72.4877 32.1889C72.7042 32.1709 72.8846 32.243 73.0289 32.4054C73.1732 32.5497 73.2454 32.8563 73.2454 33.3254C73.2454 33.6861 73.1823 34.0109 73.056 34.2995C72.9477 34.5701 72.7403 34.7595 72.4336 34.8677C72.1991 34.9399 71.8924 35.003 71.5136 35.0571C71.1348 35.1293 70.8011 35.1654 70.5124 35.1654ZM79.5632 35.1112C78.4448 35.1112 77.8856 34.534 77.8856 33.3795V17.3065C77.8856 16.1701 78.4448 15.6018 79.5632 15.6018C80.6997 15.6018 81.2679 16.1701 81.2679 17.3065V23.5842C81.7189 22.8626 82.3232 22.3214 83.0808 21.9607C83.8385 21.5818 84.6773 21.3924 85.5973 21.3924C88.7181 21.3924 90.2785 23.2054 90.2785 26.8312V33.3795C90.2785 34.534 89.7193 35.1112 88.6008 35.1112C87.4644 35.1112 86.8961 34.534 86.8961 33.3795V26.9936C86.8961 25.9654 86.6977 25.2167 86.3008 24.7477C85.922 24.2787 85.3267 24.0442 84.515 24.0442C83.5228 24.0442 82.7291 24.3599 82.1338 24.9912C81.5565 25.6046 81.2679 26.4254 81.2679 27.4536V33.3795C81.2679 34.534 80.6997 35.1112 79.5632 35.1112Z" fill="white"/>
<rect x="18.9914" y="7.89478" width="75.9653" height="3.28947" rx="1.64474" fill="white"/>
<path d="M18.9914 40.4605C18.9914 39.5522 19.7278 38.8158 20.6361 38.8158H56.9741H93.312C94.2203 38.8158 94.9567 39.5522 94.9567 40.4605V40.4605C94.9567 41.3689 94.2203 42.1053 93.312 42.1053H20.6361C19.7278 42.1053 18.9914 41.3689 18.9914 40.4605V40.4605Z" fill="white"/>
<defs>
<linearGradient id="paint0_linear_28_4" x1="22.4218" y1="-2.48384e-09" x2="92.8403" y2="49.7686" gradientUnits="userSpaceOnUse">
<stop stop-color="#709CFF"/>
<stop offset="1" stop-color="#5F84D8"/>
</linearGradient>
</defs>
</svg>
