<svg width="511" height="460" viewBox="0 0 511 460" fill="none" xmlns="http://www.w3.org/2000/svg">
    <path d="M396.907 407.67V249.313H380.747V407.67L370.464 410.751V415.522H407.191V410.751L396.907 407.67Z" fill="#2E353A"/>
    <path d="M191.237 249.313H175.077V407.67L164.794 410.751V415.522H201.521V410.751L191.237 407.67V249.313Z" fill="#2E353A"/>
    <g opacity="0.2">
        <path opacity="0.2" d="M396.907 267.94H380.747V407.67L370.464 410.751V415.522H407.191V410.751L396.907 407.67V267.94Z" fill="white"/>
        <path opacity="0.2" d="M191.237 267.94H175.077V407.67L164.794 410.751V415.522H201.521V410.751L191.237 407.67V267.94Z" fill="white"/>
    </g>
    <path d="M446.856 255.045V0L125.129 0V255.045L446.856 255.045Z" fill="#2E353A"/>
    <path opacity="0.2" d="M446.856 255.045V0L125.129 0V255.045L446.856 255.045Z" fill="white"/>
    <path d="M439.701 7.07822H132.283V247.823H439.701V7.07822Z" fill="#407BFF"/>
    <path opacity="0.3" d="M439.701 7.07822H132.283V247.823H439.701V7.07822Z" fill="white"/>
    <path d="M166.997 28.6567V93.8507H273.52L166.997 28.6567Z" stroke="#263238" stroke-miterlimit="10"/>
    <path d="M172.345 94.0227V88.6925H166.88" stroke="#263238" stroke-width="0.793303" stroke-miterlimit="10"/>
    <path d="M222.01 47.6963C221.683 47.6963 221.366 47.6186 221.058 47.4631C220.753 47.3044 220.541 47.0712 220.42 46.7634L220.629 46.6111L220.468 47.6011H219.706V40.4614H220.563V43.8504L220.382 43.7171C220.541 43.4601 220.767 43.2506 221.063 43.0888C221.358 42.9238 221.673 42.8413 222.01 42.8413C222.444 42.8413 222.819 42.9555 223.133 43.184C223.447 43.4093 223.688 43.7076 223.857 44.0788C224.028 44.4469 224.114 44.8436 224.114 45.2688C224.114 45.7226 224.02 46.1335 223.833 46.5016C223.646 46.8665 223.393 47.1569 223.076 47.3726C222.759 47.5884 222.403 47.6963 222.01 47.6963ZM221.905 46.9347C222.178 46.9347 222.414 46.8602 222.614 46.711C222.814 46.5587 222.968 46.3572 223.076 46.1065C223.184 45.8527 223.238 45.5734 223.238 45.2688C223.238 44.9515 223.184 44.6675 223.076 44.4168C222.968 44.1661 222.814 43.9678 222.614 43.8218C222.414 43.6758 222.178 43.6029 221.905 43.6029C221.661 43.6029 221.432 43.6647 221.22 43.7885C221.01 43.9091 220.84 44.0931 220.71 44.3406C220.58 44.585 220.515 44.8944 220.515 45.2688C220.515 45.6591 220.58 45.9764 220.71 46.2208C220.84 46.4651 221.01 46.646 221.22 46.7634C221.432 46.8776 221.661 46.9347 221.905 46.9347Z" fill="#263238"/>
    <path d="M170.342 146.146C170.016 146.146 169.698 146.069 169.39 145.913C169.086 145.755 168.873 145.521 168.753 145.214L168.962 145.061L168.8 146.051H168.039V138.912H168.895V142.301L168.715 142.167C168.873 141.91 169.1 141.701 169.395 141.539C169.69 141.374 170.006 141.291 170.342 141.291C170.777 141.291 171.152 141.406 171.466 141.634C171.78 141.859 172.021 142.158 172.189 142.529C172.361 142.897 172.446 143.294 172.446 143.719C172.446 144.173 172.353 144.584 172.165 144.952C171.978 145.317 171.726 145.607 171.409 145.823C171.091 146.039 170.736 146.146 170.342 146.146ZM170.238 145.385C170.511 145.385 170.747 145.31 170.947 145.161C171.147 145.009 171.301 144.807 171.409 144.557C171.517 144.303 171.57 144.024 171.57 143.719C171.57 143.402 171.517 143.118 171.409 142.867C171.301 142.616 171.147 142.418 170.947 142.272C170.747 142.126 170.511 142.053 170.238 142.053C169.993 142.053 169.765 142.115 169.552 142.239C169.343 142.359 169.173 142.543 169.043 142.791C168.913 143.035 168.848 143.345 168.848 143.719C168.848 144.109 168.913 144.427 169.043 144.671C169.173 144.915 169.343 145.096 169.552 145.214C169.765 145.328 169.993 145.385 170.238 145.385Z" fill="#263238"/>
    <path d="M207.196 102.617C206.669 102.617 206.227 102.511 205.868 102.298C205.513 102.082 205.243 101.793 205.059 101.432C204.878 101.067 204.788 100.662 204.788 100.218C204.788 99.7547 204.875 99.3374 205.049 98.9661C205.227 98.5948 205.498 98.3013 205.863 98.0855C206.228 97.8698 206.695 97.7619 207.263 97.7619C207.507 97.7619 207.737 97.7873 207.953 97.838C208.172 97.8856 208.367 97.9523 208.538 98.0379L208.405 98.79C208.231 98.7075 208.045 98.6424 207.848 98.5948C207.655 98.5472 207.453 98.5234 207.244 98.5234C206.73 98.5234 206.338 98.6694 206.068 98.9614C205.798 99.2533 205.663 99.6595 205.663 100.18C205.663 100.688 205.792 101.095 206.049 101.403C206.306 101.711 206.698 101.865 207.225 101.865C207.44 101.865 207.647 101.839 207.843 101.789C208.043 101.738 208.234 101.668 208.415 101.579L208.529 102.265C208.402 102.354 208.216 102.434 207.972 102.507C207.728 102.58 207.469 102.617 207.196 102.617Z" fill="#263238"/>
    <path d="M170.19 166.163C169.663 166.163 169.221 166.057 168.862 165.844C168.507 165.629 168.237 165.34 168.053 164.978C167.872 164.613 167.782 164.208 167.782 163.764C167.782 163.301 167.869 162.884 168.043 162.512C168.221 162.141 168.492 161.848 168.857 161.632C169.222 161.416 169.689 161.308 170.257 161.308C170.501 161.308 170.731 161.334 170.947 161.384C171.166 161.432 171.361 161.499 171.532 161.584L171.399 162.336C171.225 162.254 171.039 162.189 170.842 162.141C170.649 162.094 170.447 162.07 170.238 162.07C169.724 162.07 169.332 162.216 169.062 162.508C168.792 162.8 168.657 163.206 168.657 163.726C168.657 164.234 168.786 164.642 169.043 164.949C169.3 165.257 169.692 165.411 170.219 165.411C170.434 165.411 170.641 165.386 170.837 165.335C171.037 165.284 171.228 165.214 171.409 165.126L171.523 165.811C171.396 165.9 171.21 165.981 170.966 166.054C170.722 166.127 170.463 166.163 170.19 166.163Z" fill="#263238"/>
    <path d="M156.823 63.2283C156.534 63.2283 156.282 63.1695 156.066 63.0521C155.85 62.9347 155.682 62.7745 155.561 62.5714C155.444 62.3683 155.385 62.1367 155.385 61.8765C155.385 61.6131 155.442 61.3878 155.557 61.2006C155.674 61.0102 155.829 60.8531 156.023 60.7293C156.22 60.6024 156.439 60.5025 156.68 60.4295C156.921 60.3533 157.17 60.2994 157.427 60.2676C157.687 60.2327 157.936 60.2137 158.174 60.2105C158.174 59.7663 158.087 59.4759 157.913 59.3395C157.738 59.203 157.486 59.1348 157.156 59.1348C156.981 59.1348 156.794 59.1618 156.594 59.2157C156.397 59.2697 156.175 59.3823 155.928 59.5537L155.804 58.8587C155.991 58.7159 156.224 58.6001 156.504 58.5113C156.783 58.4192 157.076 58.3732 157.384 58.3732C157.778 58.3732 158.095 58.443 158.336 58.5827C158.577 58.7191 158.754 58.9508 158.865 59.2776C158.976 59.6044 159.031 60.0487 159.031 60.6104V61.5623C159.031 61.7844 159.041 61.9685 159.06 62.1145C159.082 62.2572 159.13 62.3651 159.203 62.4381C159.279 62.5079 159.399 62.5428 159.564 62.5428H159.65L159.517 63.2283H159.45C159.174 63.2283 158.96 63.2013 158.807 63.1473C158.658 63.0934 158.544 63.0156 158.465 62.9141C158.385 62.8126 158.314 62.6888 158.251 62.5428C158.076 62.7459 157.87 62.9109 157.632 63.0379C157.394 63.1648 157.124 63.2283 156.823 63.2283ZM156.984 62.5428C157.213 62.5428 157.433 62.4857 157.646 62.3715C157.862 62.2572 158.038 62.1049 158.174 61.9145V60.8007C157.721 60.8166 157.353 60.861 157.07 60.934C156.791 61.007 156.586 61.1165 156.456 61.2624C156.326 61.4084 156.261 61.5972 156.261 61.8289C156.261 62.0795 156.328 62.262 156.461 62.3762C156.597 62.4873 156.772 62.5428 156.984 62.5428Z" fill="#263238"/>
    <path d="M169.133 126.115C168.845 126.115 168.592 126.057 168.377 125.939C168.161 125.822 167.993 125.662 167.872 125.459C167.755 125.255 167.696 125.024 167.696 124.764C167.696 124.5 167.753 124.275 167.867 124.088C167.985 123.897 168.14 123.74 168.334 123.617C168.531 123.49 168.75 123.39 168.991 123.317C169.232 123.24 169.481 123.187 169.738 123.155C169.998 123.12 170.247 123.101 170.485 123.098C170.485 122.653 170.398 122.363 170.223 122.227C170.049 122.09 169.797 122.022 169.467 122.022C169.292 122.022 169.105 122.049 168.905 122.103C168.708 122.157 168.486 122.269 168.239 122.441L168.115 121.746C168.302 121.603 168.535 121.487 168.815 121.398C169.094 121.306 169.387 121.26 169.695 121.26C170.089 121.26 170.406 121.33 170.647 121.47C170.888 121.606 171.064 121.838 171.175 122.165C171.286 122.492 171.342 122.936 171.342 123.498V124.449C171.342 124.672 171.352 124.856 171.371 125.002C171.393 125.144 171.44 125.252 171.513 125.325C171.59 125.395 171.71 125.43 171.875 125.43H171.961L171.828 126.115H171.761C171.485 126.115 171.271 126.088 171.118 126.035C170.969 125.981 170.855 125.903 170.776 125.801C170.696 125.7 170.625 125.576 170.561 125.43C170.387 125.633 170.181 125.798 169.943 125.925C169.705 126.052 169.435 126.115 169.133 126.115ZM169.295 125.43C169.524 125.43 169.744 125.373 169.957 125.259C170.173 125.144 170.349 124.992 170.485 124.802V123.688C170.031 123.704 169.663 123.748 169.381 123.821C169.102 123.894 168.897 124.004 168.767 124.15C168.637 124.296 168.572 124.484 168.572 124.716C168.572 124.967 168.638 125.149 168.772 125.263C168.908 125.374 169.083 125.43 169.295 125.43Z" fill="#263238"/>
    <path d="M298.479 29.3731H357.242" stroke="#263238" stroke-miterlimit="10"/>
    <path d="M298.479 40.8358H330.799" stroke="#263238" stroke-miterlimit="10"/>
    <path d="M298.479 49.4328H344.021" stroke="#263238" stroke-miterlimit="10"/>
    <path d="M298.479 59.4627H336.675" stroke="#263238" stroke-miterlimit="10"/>
    <path d="M298.479 70.9254H355.773" stroke="#263238" stroke-miterlimit="10"/>
    <path d="M298.479 80.9552H354.304" stroke="#263238" stroke-miterlimit="10"/>
    <path d="M298.479 90.9851H336.675" stroke="#263238" stroke-miterlimit="10"/>
    <path d="M364.588 178.388H404.253" stroke="#263238" stroke-miterlimit="10"/>
    <path d="M364.588 189.851H386.624" stroke="#263238" stroke-miterlimit="10"/>
    <path d="M364.588 198.448H395.438" stroke="#263238" stroke-miterlimit="10"/>
    <path d="M364.588 208.478H391.031" stroke="#263238" stroke-miterlimit="10"/>
    <path d="M163.325 197.015H202.99" stroke="#263238" stroke-miterlimit="10"/>
    <path d="M163.325 208.478H185.361" stroke="#263238" stroke-miterlimit="10"/>
    <path d="M163.325 217.075H194.175" stroke="#263238" stroke-miterlimit="10"/>
    <path d="M163.325 227.104H189.768" stroke="#263238" stroke-miterlimit="10"/>
    <path d="M376.34 49.4328H414.536" stroke="#263238" stroke-miterlimit="10"/>
    <path d="M376.34 59.4627H414.536" stroke="#263238" stroke-miterlimit="10"/>
    <path d="M376.34 69.4926H402.784" stroke="#263238" stroke-miterlimit="10"/>
    <path d="M263.222 197.015H301.418" stroke="#263238" stroke-miterlimit="10"/>
    <path d="M263.222 207.045H301.418" stroke="#263238" stroke-miterlimit="10"/>
    <path d="M263.222 217.075H289.665" stroke="#263238" stroke-miterlimit="10"/>
    <path d="M191.237 131.104H276.443" stroke="#263238" stroke-miterlimit="10"/>
    <path d="M191.237 149.731H276.443" stroke="#263238" stroke-miterlimit="10"/>
    <path d="M191.237 168.358H276.443" stroke="#263238" stroke-miterlimit="10"/>
    <path d="M332.958 178.474C347.766 178.474 359.769 166.767 359.769 152.325C359.769 137.883 347.766 126.176 332.958 126.176C318.151 126.176 306.148 137.883 306.148 152.325C306.148 166.767 318.151 178.474 332.958 178.474Z" stroke="#263238" stroke-width="0.793303" stroke-miterlimit="10"/>
    <path d="M333.003 126.09V152.597H360.18" stroke="#263238" stroke-miterlimit="10"/>
    <path opacity="0.6" d="M439.701 7.07822H132.283V247.823H439.701V7.07822Z" fill="white"/>
    <path d="M323.836 137.008L301.153 124.112C297.537 124.376 293.902 124.212 290.326 123.625C284.45 122.636 283.186 122.579 283.892 118.066C284.597 113.552 283.612 107.534 285.361 106.904C287.109 106.273 299.478 111.36 301.623 114.813L324.511 122.794L323.836 137.008Z" fill="#B97964"/>
    <path d="M391.031 115.157V140.948C391.031 140.948 385.39 142.768 378.382 144.673C370.346 146.851 360.518 149.144 355.406 148.972C345.857 148.513 313.537 132.15 313.537 132.15L319.414 121.232C319.414 121.232 354.671 132.953 359.079 132.107C363.486 131.262 391.031 115.157 391.031 115.157Z" fill="#407BFF"/>
    <path opacity="0.2" d="M391.031 127.723V140.962C391.031 140.962 385.39 142.782 378.382 144.688C380.968 137.008 387.417 130.746 391.031 127.723Z" fill="black"/>
    <path d="M396.907 206.959C396.907 206.959 380.982 289.719 376.737 323.706C371.184 368.038 348.487 432.888 348.487 432.888L357.565 435.181C357.565 435.181 389.562 380.074 395.761 330.484C421.176 279.804 423.218 217.39 423.218 217.39L396.907 206.959Z" fill="#B97964"/>
    <path d="M331.651 452.948C333.118 452.29 334.697 451.901 336.308 451.802C336.308 451.802 341.89 448.592 347.429 436.155H353.643C354.693 436.169 355.714 436.497 356.567 437.094C357.421 437.691 358.067 438.528 358.418 439.494C358.52 439.765 358.579 440.05 358.594 440.339C358.529 441.78 358.372 443.216 358.124 444.638C357.203 449.48 355.986 454.265 354.48 458.966L353.423 458.694L355.347 449.653C355.979 446.572 352.673 449.538 351.131 452.647C349.588 455.756 347.238 458.866 340.377 457.333C332.371 455.484 329.139 454.352 331.651 452.948Z" fill="#2E353A"/>
    <path d="M413.493 205.641C413.493 205.641 415.476 289.82 418.532 323.936C422.498 368.425 414.037 436.456 414.037 436.456L423.409 436.857C423.409 436.857 443.021 376.492 438.614 326.715C452.732 271.995 441.552 210.527 441.552 210.527L413.493 205.641Z" fill="#B97964"/>
    <path d="M399.463 455.728C400.851 454.914 402.379 454.355 403.973 454.08C403.973 454.08 409.174 450.312 413.287 437.359L419.472 436.671C420.524 436.573 421.58 436.796 422.496 437.31C423.412 437.823 424.142 438.601 424.584 439.537C424.716 439.794 424.806 440.069 424.849 440.353C424.944 441.818 424.944 443.287 424.849 444.752C424.473 449.645 423.796 454.511 422.822 459.324L421.734 459.167L422.645 449.968C422.939 446.844 419.972 450.154 418.782 453.392C417.592 456.63 415.608 459.983 408.601 459.195C400.462 458.164 397.128 457.39 399.463 455.728Z" fill="#2E353A"/>
    <path d="M445.137 62.443C445.137 62.443 449.794 62.6866 453.716 70.1516C457.639 77.6167 452.732 85.9128 451.748 89.8818C450.763 93.8507 445.871 97.3612 453.951 103.365C462.031 109.368 466.879 115.744 460.327 122.235C453.775 128.726 460.974 133.698 451.513 138.512C442.052 143.327 407.191 136.119 402.784 126.806C398.376 117.493 403.694 110.414 403.973 107.635C404.253 104.855 398.376 102.004 396.907 92.905C395.438 83.8065 402.96 81.8579 403.973 77.7027C404.987 73.5474 400.271 68.3033 403.973 59.4627C407.676 50.6221 444.637 48.7164 445.137 62.443Z" fill="#2E353A"/>
    <path d="M468.598 186.398C463.03 187.1 456.596 176.497 451.939 166.61C447.957 158.228 445.181 150.347 445.181 150.347L448.119 142.266L455.788 121.175C455.788 121.175 461.15 128.468 469.215 156.236C470.508 160.707 472.065 165.707 473.49 171.296C473.479 172.708 473.926 174.087 474.768 175.236C474.768 179.434 475.282 185.552 468.598 186.398Z" fill="#407BFF"/>
    <path opacity="0.2" d="M451.836 166.61C447.869 158.228 445.137 150.347 445.137 150.347L448.075 142.266C450.132 147.854 453.143 157.984 451.836 166.61Z" fill="black"/>
    <path opacity="0.2" d="M474.768 175.236C471.83 177.127 468.76 177.099 467.041 173.645C463.559 166.667 466.923 159.761 469.303 156.222C470.611 160.693 472.109 165.693 473.534 171.281C473.487 172.696 473.921 174.086 474.768 175.236Z" fill="black"/>
    <path d="M387.123 183.647C387.123 183.647 416.505 193.906 444.505 192C444.505 192 441.964 158.185 427.273 152.167C412.582 146.149 387.123 154.746 387.123 183.647Z" fill="#407BFF"/>
    <path opacity="0.2" d="M387.123 183.647C387.123 183.647 416.505 193.906 444.505 192C444.505 192 441.964 158.185 427.273 152.167C412.582 146.149 387.123 154.746 387.123 183.647Z" fill="black"/>
    <path d="M391.281 186.054L439.76 190.137C440.232 178.416 441.96 166.776 444.916 155.405C446.077 150.878 447.531 145.82 449.397 139.974C450.396 136.85 451.498 133.497 452.732 129.944C453.657 127.207 454.656 124.299 455.758 121.232C449.175 119.182 442.449 117.597 435.632 116.49C428.438 115.243 421.163 114.497 413.86 114.254C404.429 114.254 393.587 115.214 393.587 115.214C393.587 115.214 392.045 115.573 391.075 125.33C390.208 134.429 389.342 152.74 391.281 186.054Z" fill="#407BFF"/>
    <path d="M391.516 193.146L439.995 197.044C440.759 185.294 441.332 169.419 444.961 155.405C446.121 150.878 447.576 145.82 449.441 139.974C450.44 136.85 451.542 133.497 452.776 129.944C453.702 127.207 454.701 124.299 455.802 121.232C449.219 119.182 442.493 117.597 435.676 116.49C428.482 115.243 421.207 114.497 413.904 114.254C404.473 114.254 393.631 115.214 393.631 115.214C393.631 115.214 392.089 115.573 391.119 125.33C390.208 134.429 389.562 159.833 391.516 193.146Z" fill="#2E353A"/>
    <path d="M417.871 124.657C429.829 123.224 433.414 118.18 433.414 118.18C425.833 111.202 432.136 99.1093 432.136 99.1093L417.753 101.731C418.091 103.687 418.278 105.666 418.312 107.649C418.429 116.16 414.477 116.246 414.477 116.246C411.95 120.845 417.871 124.657 417.871 124.657Z" fill="#B97964"/>
    <path opacity="0.2" d="M417.753 101.731C418.091 103.687 418.278 105.666 418.312 107.649C428.022 107.649 432.136 99.0519 432.136 99.0519L417.753 101.731Z" fill="black"/>
    <path d="M425.701 62.486C413.199 61.8269 408.807 68.1457 407.191 80.6543C405.163 96.3009 408.102 107.649 423.923 105.127C445.387 101.731 446.474 63.6036 425.701 62.486Z" fill="#B97964"/>
    <path d="M415.3 80.4107C414.199 82.1789 412.882 83.81 411.378 85.2681C411.718 85.7925 412.199 86.2157 412.769 86.4912C413.339 86.7666 413.976 86.8838 414.61 86.8299L415.3 80.4107Z" fill="#A24E3F"/>
    <path d="M423.013 79.8233C423.013 80.8263 423.424 81.6716 424.114 81.7289C424.805 81.7863 425.407 81.0125 425.495 80.0095C425.584 79.0066 425.084 78.1612 424.394 78.1039C423.703 78.0466 423.101 78.806 423.013 79.8233Z" fill="#2E353A"/>
    <path d="M424.687 78.1755L422.513 77.1439C422.513 77.1439 423.483 79.0639 424.687 78.1755Z" fill="#2E353A"/>
    <path d="M410.276 78.634C410.202 79.637 410.687 80.4967 411.378 80.5397C412.068 80.5827 412.67 79.8233 412.758 78.8203C412.847 77.8173 412.347 76.9719 411.671 76.9146C410.996 76.8573 410.364 77.631 410.276 78.634Z" fill="#2E353A"/>
    <path d="M411.951 76.9863L409.776 75.969C409.776 75.969 410.746 77.889 411.951 76.9863Z" fill="#2E353A"/>
    <path d="M423.615 71.3982C424.61 71.3329 425.607 71.4915 426.529 71.8617C427.451 72.2318 428.273 72.8037 428.933 73.5331" stroke="#2E353A" stroke-width="0.72468" stroke-linecap="round" stroke-linejoin="round"/>
    <path d="M414.536 70.4095C413.694 70.1547 412.804 70.0881 411.931 70.2146C411.059 70.3411 410.227 70.6575 409.497 71.1403" stroke="#2E353A" stroke-width="0.72468" stroke-linecap="round" stroke-linejoin="round"/>
    <path d="M416.152 91.7015C416.666 93.1032 417.074 94.5399 417.371 96C417.645 96.0143 417.92 96.0143 418.194 96C421.852 95.8424 423.483 94.5672 424.203 93.2489C424.535 92.5854 424.697 91.8524 424.673 91.114C424.684 90.6976 424.63 90.2819 424.511 89.8818C422.325 90.971 419.926 91.5915 417.474 91.7015C416.637 91.7015 416.152 91.7015 416.152 91.7015Z" fill="#2E353A"/>
    <path d="M417.474 91.7015L417.871 92.9624C421.323 92.8048 423.747 92.2316 424.746 91.1713C424.758 90.7549 424.703 90.3392 424.585 89.9391C422.372 91.0184 419.947 91.6195 417.474 91.7015Z" fill="white"/>
    <path d="M418.194 96C421.852 95.8424 423.483 94.5672 424.203 93.249C422.813 93.3339 421.45 93.659 420.177 94.209C419.34 94.5887 418.646 95.2151 418.194 96Z" fill="#DE5753"/>
    <path d="M438.217 83.7779C438.217 83.7779 432.929 73.4471 434.251 65.7528C434.251 65.7528 410.026 54.5624 407.426 79.0209C407.426 79.0209 406.221 57.1128 427.743 57.7719C449.265 58.431 447.458 89.108 435.838 97.6477C435.838 97.6477 441.479 90.2686 438.217 83.7779Z" fill="#2E353A"/>
    <path d="M436.029 86.2424C436.126 85.5458 436.364 84.8748 436.727 84.2678C437.091 83.6609 437.574 83.1299 438.149 82.7053C438.723 82.2807 439.378 81.9709 440.075 81.7935C440.773 81.6161 441.499 81.5747 442.213 81.6716C446.062 82.2878 447.473 90.1397 437.806 91.5009C436.322 91.7015 435.617 90.2687 436.029 86.2424Z" fill="#B97964"/>
    <path d="M444.505 119.47C444.505 119.47 430.461 130.574 417.474 130.388C404.488 130.202 399.845 115.888 399.845 115.888C399.845 115.888 420.016 110.027 444.505 119.47Z" fill="#B97964"/>
    <path d="M443.301 117.378C443.301 117.378 420.266 157.612 444.505 192C444.505 192 447.796 149.574 455.773 121.175L443.301 117.378Z" fill="#407BFF"/>
    <path d="M401.035 114.197C401.035 114.197 400.83 142.667 396.628 153.242C392.427 163.816 387.094 183.647 387.094 183.647C387.094 183.647 383.039 136.22 391.002 115.157L401.035 114.197Z" fill="#407BFF"/>
    <path d="M434.251 65.7528C434.251 65.7528 424.937 62.6149 416.74 65.7528C408.542 68.8908 410.775 77.2155 406.618 78.7343" stroke="#2E353A" stroke-width="0.5" stroke-linecap="round" stroke-linejoin="round"/>
    <path d="M508.189 109.067L504.34 106.918L490.193 110.687L471.095 105.858L466.688 120C466.688 120 465.777 135.761 466.688 135.947C467.599 136.134 488.548 137.194 488.548 137.194L499.199 130.574L508.189 109.067Z" fill="#E0E0E0"/>
    <path d="M465.954 106.918L457.506 139.544L483.582 142.395L501.579 137.552L510.76 106.918L490.193 112.119L465.954 106.918Z" fill="#407BFF"/>
    <path opacity="0.4" d="M490.193 112.119L483.582 142.395L457.506 139.544L465.954 106.918L490.193 112.119Z" fill="white"/>
    <path opacity="0.2" d="M490.193 112.119L483.582 142.395L501.579 137.552L510.76 106.918L490.193 112.119Z" fill="white"/>
    <path d="M467.305 171.94L479.425 149.244C478.985 145.732 478.985 142.182 479.425 138.67C480.16 132.938 480.16 131.663 484.802 132.136C489.444 132.609 495.585 131.377 496.319 133.053C497.054 134.73 492.397 147.009 488.974 149.258L481.849 171.94H467.305Z" fill="#B97964"/>
    <path d="M463.383 184.406C471.095 190.811 479.91 185.309 484.802 166.925L469.626 165.02L463.383 184.406Z" fill="#407BFF"/>
    <path d="M470.405 160.979L467.305 166.309L486.521 168.831V163.343L470.405 160.979Z" fill="#2E353A"/>
    <path d="M312.759 133.469L318.077 136.735L321.559 118.137L315.932 117.879L312.759 133.469Z" fill="#2E353A"/>
    <path d="M391.516 193.146L360.959 368.239C360.959 368.239 434.912 376.836 459.975 371.821C459.975 371.821 466.13 246.476 439.966 197.015L391.516 193.146Z" fill="#407BFF"/>
    <path opacity="0.4" d="M391.516 193.146L360.959 368.239C360.959 368.239 434.912 376.836 459.975 371.821C459.975 371.821 466.13 246.476 439.966 197.015L391.516 193.146Z" fill="white"/>
    <path d="M292.295 116.174L284.685 108.509C280.145 103.881 273.975 97.8197 267.849 91.7301L258.785 82.8466L250.867 75.0949L245.27 69.6215C244.594 68.9624 244.05 68.4466 243.698 68.0884C243.544 68.0063 243.375 67.9562 243.2 67.9414C243.026 67.9266 242.85 67.9474 242.684 68.0024L244.755 65.9677C244.699 66.1295 244.678 66.3009 244.693 66.4711C244.708 66.6413 244.759 66.8066 244.844 66.9564L246.43 68.4895L252.071 73.92L260.034 81.6143L269.201 90.4119C275.474 96.3582 281.717 102.347 286.477 106.761L294.381 114.14L292.295 116.174Z" fill="#2E353A"/>
    <path d="M348.545 432.888C348.545 432.888 340.789 448.736 336.308 451.802C336.308 451.802 342.302 455.284 348.545 447.503C356.625 437.473 358.594 440.339 358.594 440.339C358.434 438.608 358.109 436.896 357.624 435.224C356.405 431.943 348.545 432.888 348.545 432.888Z" fill="#B97964"/>
    <path d="M414.991 432.716C414.991 432.716 412.788 438.591 409.85 445.039C408.504 448.38 406.509 451.435 403.973 454.037C403.973 454.037 409.086 455.656 411.833 452.533C414.58 449.409 419.296 438.204 424.585 439.436C424.304 438.519 423.909 437.638 423.409 436.814C422.616 435.582 414.991 432.716 414.991 432.716Z" fill="#B97964"/>
    <path d="M168.496 459.94L169.701 281.91H157.757L158.947 459.94H168.496Z" fill="#407BFF"/>
    <path opacity="0.5" d="M158.947 459.94H168.511L169.465 317.703L169.701 282.269H157.757L157.992 317.703L158.947 459.94Z" fill="white"/>
    <path opacity="0.2" d="M169.701 282.269L169.465 318.09H157.992L157.757 282.269H169.701Z" fill="black"/>
    <path d="M261.268 459.94L250.544 281.91H238.6L251.719 459.94H261.268Z" fill="#407BFF"/>
    <path opacity="0.5" d="M251.704 459.94H261.268L251.19 292.829L250.544 282.269H238.6L239.393 292.829L251.704 459.94Z" fill="white"/>
    <path opacity="0.2" d="M251.19 292.298H239.393L238.6 282.269H250.544L251.19 292.298Z" fill="black"/>
    <path d="M75.7387 459.94L88.8428 281.91H76.8992L66.175 459.94H75.7387Z" fill="#407BFF"/>
    <path opacity="0.3" d="M75.7387 459.94L88.0495 292.829L88.8428 282.269H76.8992L76.2528 292.829L66.175 459.94H75.7387Z" fill="white"/>
    <path opacity="0.2" d="M76.8992 282.269H88.8428L88.0495 292.298H76.2528L76.8992 282.269Z" fill="black"/>
    <path d="M67.4384 276.423H260.004V284.318C260.004 284.724 259.922 285.126 259.763 285.502C259.603 285.877 259.37 286.219 259.075 286.506C258.78 286.793 258.43 287.021 258.046 287.177C257.661 287.332 257.248 287.413 256.831 287.413H70.6116C70.1949 287.413 69.7822 287.332 69.3973 287.177C69.0123 287.021 68.6625 286.793 68.3678 286.506C68.0731 286.219 67.8394 285.877 67.6799 285.502C67.5205 285.126 67.4384 284.724 67.4384 284.318V276.423Z" fill="#407BFF"/>
    <path opacity="0.4" d="M67.4384 276.423H260.004V284.318C260.004 284.724 259.922 285.126 259.763 285.502C259.603 285.877 259.37 286.219 259.075 286.506C258.78 286.793 258.43 287.021 258.046 287.177C257.661 287.332 257.248 287.413 256.831 287.413H70.6116C70.1949 287.413 69.7822 287.332 69.3973 287.177C69.0123 287.021 68.6625 286.793 68.3678 286.506C68.0731 286.219 67.8394 285.877 67.6799 285.502C67.5205 285.126 67.4384 284.724 67.4384 284.318V276.423Z" fill="white"/>
    <path opacity="0.2" d="M260.004 276.423H67.4384V281.925H260.004V276.423Z" fill="black"/>
    <path d="M265.587 277.856H61.8559C61.013 277.852 60.2059 277.522 59.6112 276.94C59.0166 276.357 58.6827 275.568 58.6827 274.746C58.6827 273.925 59.0171 273.138 59.6121 272.558C60.2072 271.977 61.0143 271.651 61.8559 271.651H265.587C266.428 271.651 267.236 271.977 267.831 272.558C268.426 273.138 268.76 273.925 268.76 274.746C268.76 275.568 268.426 276.357 267.832 276.94C267.237 277.522 266.43 277.852 265.587 277.856Z" fill="#407BFF"/>
    <path opacity="0.4" d="M265.587 277.856H61.8559C61.013 277.852 60.2059 277.522 59.6112 276.94C59.0166 276.357 58.6827 275.568 58.6827 274.746C58.6827 273.925 59.0171 273.138 59.6121 272.558C60.2072 271.977 61.0143 271.651 61.8559 271.651H265.587C266.428 271.651 267.236 271.977 267.831 272.558C268.426 273.138 268.76 273.925 268.76 274.746C268.76 275.568 268.426 276.357 267.832 276.94C267.237 277.522 266.43 277.852 265.587 277.856Z" fill="white"/>
    <path d="M152.674 276.423V282.512C152.674 283.156 152.804 283.793 153.056 284.388C153.309 284.982 153.679 285.522 154.146 285.977C154.612 286.432 155.166 286.793 155.776 287.04C156.385 287.286 157.038 287.413 157.698 287.413H258.286C259.129 287.413 259.937 287.087 260.535 286.507C261.132 285.927 261.47 285.14 261.473 284.318V276.423H152.674Z" fill="#407BFF"/>
    <path opacity="0.6" d="M152.674 276.423V282.512C152.674 283.156 152.804 283.793 153.056 284.388C153.309 284.982 153.679 285.522 154.146 285.977C154.612 286.432 155.166 286.793 155.776 287.04C156.385 287.286 157.038 287.413 157.698 287.413H258.286C259.129 287.413 259.937 287.087 260.535 286.507C261.132 285.927 261.47 285.14 261.473 284.318V276.423H152.674Z" fill="white"/>
    <path opacity="0.2" d="M261.473 276.423H152.674V281.925H261.473V276.423Z" fill="black"/>
    <path d="M266.865 271.651H149.971C149.128 271.651 148.319 271.977 147.722 272.557C147.124 273.137 146.787 273.924 146.783 274.746C146.783 275.571 147.119 276.362 147.717 276.945C148.315 277.528 149.125 277.856 149.971 277.856H267.041C267.487 277.856 267.927 277.765 268.334 277.588C268.741 277.412 269.106 277.154 269.404 276.83C269.702 276.507 269.927 276.127 270.064 275.713C270.201 275.3 270.247 274.863 270.2 274.431C270.088 273.65 269.688 272.936 269.073 272.424C268.459 271.912 267.673 271.637 266.865 271.651Z" fill="#407BFF"/>
    <path opacity="0.6" d="M266.865 271.651H149.971C149.128 271.651 148.319 271.977 147.722 272.557C147.124 273.137 146.787 273.924 146.783 274.746C146.783 275.571 147.119 276.362 147.717 276.945C148.315 277.528 149.125 277.856 149.971 277.856H267.041C267.487 277.856 267.927 277.765 268.334 277.588C268.741 277.412 269.106 277.154 269.404 276.83C269.702 276.507 269.927 276.127 270.064 275.713C270.201 275.3 270.247 274.863 270.2 274.431C270.088 273.65 269.688 272.936 269.073 272.424C268.459 271.912 267.673 271.637 266.865 271.651Z" fill="white"/>
    <path d="M175.9 245.946L163.046 269.101" stroke="#2E353A" stroke-width="2" stroke-miterlimit="10"/>
    <path d="M54.8044 220.657C54.8044 220.657 66.4101 200.497 68.3198 196.556C70.2296 192.616 75.3714 164.848 75.3714 164.848C74.8999 163.517 74.5893 162.137 74.4459 160.736C74.4459 159.303 75.3714 152.669 75.3714 152.669C75.3714 152.669 75.3714 152.139 79.0441 151.064C82.7168 149.989 86.7567 148.556 87.124 150.161C87.4912 151.766 86.5657 162.885 85.4639 163.959C84.6073 164.855 83.8215 165.813 83.1134 166.825C83.1134 166.825 80.0137 196.427 78.6033 200.783C77.193 205.139 65.6314 228.451 65.6314 228.451L54.8044 220.657Z" fill="#E4897B"/>
    <path d="M108.969 245.645C108.969 245.645 137.91 257.91 142.097 259.343C146.284 260.776 158.859 261.063 158.859 261.063C160.182 260.495 161.567 260.077 162.987 259.816C164.456 259.687 171.287 260.017 171.287 260.017C171.287 260.017 171.845 260.017 173.256 263.456C174.666 266.894 176.473 270.734 174.857 271.222C173.241 271.709 161.826 271.78 160.636 270.806L159.446 269.817C159.446 269.817 143.287 273.571 138.732 272.583C134.178 271.594 102.006 262.553 102.006 262.553L108.969 245.645Z" fill="#E4897B"/>
    <path d="M70.2884 224.138C69.2499 229.169 67.077 233.912 63.9273 238.023C57.7278 246.62 48.9869 252.208 46.6216 243.367C43.0224 230.013 58.2861 213.278 58.2861 213.278L70.2884 224.138Z" fill="#407BFF"/>
    <path opacity="0.2" d="M70.2884 224.139C69.2499 229.169 67.077 233.912 63.9273 238.023C63.2286 237.352 62.6899 236.54 62.3497 235.643C62.0095 234.747 61.876 233.788 61.9588 232.836C62.8108 226.861 70.2884 224.139 70.2884 224.139Z" fill="black"/>
    <path d="M101.036 214.123C100.209 217.063 98.5246 219.706 96.1881 221.731C92.7294 224.754 88.2712 226.463 83.6276 226.546C79.0354 226.654 74.576 225.038 71.1699 222.032C64.4268 216.1 64.6325 209.28 63.8245 197.674C63.0165 186.068 75.9443 177.242 89.0338 181.913C102.123 186.584 103.974 203.706 101.036 214.123Z" fill="#E4897B"/>
    <path d="M84.9497 174.491C84.9497 174.491 94.1021 171.224 100.522 176.425C106.942 181.626 106.589 194.149 100.522 200.067C100.522 200.067 102.182 197.918 97.4075 192.716C92.633 187.515 84.9497 174.491 84.9497 174.491Z" fill="#2E353A"/>
    <path opacity="0.2" d="M96.1882 221.731C92.7295 224.754 88.2712 226.463 83.6276 226.546C84.4888 224.606 85.8879 222.938 87.6675 221.731C90.4294 223.107 93.8523 222.462 96.1882 221.731Z" fill="black"/>
    <path d="M98.5387 411.582L96.9814 421.082L95.5564 429.851H82.5258L83.657 418.632L84.7294 407.885L98.5387 411.582Z" fill="#E4897B"/>
    <path d="M94.8219 424.879L81.6002 424.062C81.4902 424.05 81.3788 424.06 81.2725 424.09C81.1662 424.12 81.0672 424.171 80.9811 424.239C80.895 424.307 80.8236 424.391 80.771 424.486C80.7184 424.581 80.6857 424.685 80.6747 424.793L79.3673 434.966C79.335 435.501 79.5206 436.027 79.8837 436.43C80.2468 436.832 80.7581 437.078 81.3064 437.115C85.9193 437.33 88.1376 437.201 93.9551 437.516C97.525 437.717 104.562 438.462 109.498 437.989C114.434 437.516 113.817 432.788 111.687 432.559C106.648 432 99.9343 428.389 96.8051 425.638C96.247 425.18 95.5503 424.914 94.8219 424.879Z" fill="#2E353A"/>
    <path d="M98.8766 427.085C97.8145 426.994 96.7655 426.793 95.7474 426.484C95.6975 426.47 95.6528 426.442 95.6188 426.404C95.5849 426.366 95.5632 426.319 95.5564 426.269C95.5504 426.217 95.558 426.165 95.5786 426.117C95.5992 426.07 95.632 426.028 95.674 425.996C96.0706 425.767 99.5523 423.747 100.963 424.377C101.121 424.454 101.257 424.567 101.359 424.707C101.462 424.847 101.527 425.009 101.55 425.18C101.621 425.434 101.619 425.702 101.544 425.954C101.468 426.207 101.323 426.435 101.124 426.613C100.461 427.037 99.66 427.206 98.8766 427.085ZM100.728 424.922C99.9784 424.578 97.9657 425.423 96.5407 426.183C98.6121 426.713 100.169 426.741 100.757 426.254C100.879 426.131 100.967 425.98 101.014 425.815C101.06 425.649 101.063 425.475 101.021 425.309C101.01 425.225 100.977 425.146 100.925 425.079C100.874 425.011 100.806 424.957 100.728 424.922Z" fill="#407BFF"/>
    <path d="M95.7474 426.484C95.7096 426.498 95.6677 426.498 95.6299 426.484C95.5597 426.431 95.5125 426.354 95.4977 426.269C95.4977 426.168 95.4977 422.801 96.7023 421.755C96.8666 421.624 97.0581 421.53 97.2635 421.478C97.4689 421.426 97.6834 421.418 97.8923 421.454C98.1268 421.474 98.3481 421.569 98.5211 421.724C98.694 421.88 98.8088 422.088 98.8472 422.314C99.0235 423.589 97.1137 425.882 95.909 426.484C95.884 426.496 95.8563 426.503 95.8282 426.503C95.8001 426.503 95.7724 426.496 95.7474 426.484ZM97.6572 422.013C97.547 422.006 97.4365 422.022 97.3328 422.059C97.2291 422.096 97.1344 422.153 97.0549 422.228C96.3413 423.289 95.9915 424.543 96.0559 425.81C97.1957 424.997 97.9901 423.804 98.2889 422.457C98.2889 422.3 98.1861 422.099 97.8041 422.028L97.6572 422.013Z" fill="#407BFF"/>
    <path opacity="0.2" d="M98.5387 411.582L96.9814 421.082L83.657 418.632L84.7294 407.885L98.5387 411.582Z" fill="black"/>
    <path d="M114.361 339.41C108.323 331.644 92.7064 327.704 80.1459 325.741L75.9149 356.475C83.657 358.037 86.8742 362.207 87.3003 363.94C89.3423 372.165 79.5876 415.05 79.5876 415.05L99.8755 419.821C99.8755 419.821 125.129 353.266 114.361 339.41Z" fill="#2E353A"/>
    <path opacity="0.2" d="M114.361 339.41C108.323 331.644 92.7064 327.704 80.1459 325.741L75.9149 356.475C83.657 358.037 86.8742 362.207 87.3003 363.94C89.3423 372.165 79.5876 415.05 79.5876 415.05L99.8755 419.821C99.8755 419.821 125.129 353.266 114.361 339.41Z" fill="black"/>
    <path d="M135.265 411.582L133.708 421.082L132.283 429.851H119.253L120.384 418.632L121.456 407.885L135.265 411.582Z" fill="#E4897B"/>
    <path d="M131.549 424.879L118.327 424.062C118.217 424.05 118.106 424.06 117.999 424.09C117.893 424.12 117.794 424.171 117.708 424.239C117.622 424.307 117.55 424.391 117.498 424.486C117.445 424.581 117.413 424.685 117.402 424.793L116.094 434.966C116.062 435.501 116.247 436.027 116.61 436.43C116.974 436.832 117.485 437.078 118.033 437.115C122.646 437.33 124.864 437.201 130.682 437.516C134.252 437.717 141.289 438.462 146.225 437.989C151.161 437.516 150.544 432.788 148.414 432.559C143.375 432 136.661 428.389 133.532 425.638C132.974 425.18 132.277 424.914 131.549 424.879Z" fill="#2E353A"/>
    <path d="M135.603 427.085C134.541 426.994 133.492 426.793 132.474 426.484C132.424 426.47 132.38 426.442 132.346 426.404C132.312 426.366 132.29 426.319 132.283 426.269C132.277 426.217 132.285 426.165 132.305 426.117C132.326 426.07 132.359 426.028 132.401 425.996C132.797 425.767 136.279 423.747 137.689 424.377C137.847 424.454 137.984 424.567 138.086 424.707C138.189 424.847 138.254 425.009 138.277 425.18C138.348 425.434 138.345 425.702 138.27 425.954C138.195 426.207 138.05 426.435 137.851 426.613C137.188 427.037 136.387 427.206 135.603 427.085ZM137.454 424.922C136.705 424.578 134.693 425.423 133.268 426.183C135.339 426.713 136.896 426.741 137.484 426.254C137.606 426.131 137.694 425.98 137.74 425.815C137.787 425.649 137.789 425.475 137.748 425.309C137.736 425.225 137.703 425.146 137.652 425.079C137.601 425.011 137.533 424.957 137.454 424.922Z" fill="#407BFF"/>
    <path d="M132.474 426.484C132.436 426.498 132.394 426.498 132.357 426.484C132.286 426.431 132.239 426.354 132.224 426.269C132.224 426.168 132.224 422.801 133.429 421.755C133.593 421.624 133.785 421.53 133.99 421.478C134.196 421.426 134.41 421.418 134.619 421.454C134.854 421.474 135.075 421.569 135.248 421.724C135.421 421.88 135.536 422.088 135.574 422.314C135.75 423.589 133.84 425.882 132.636 426.484C132.611 426.496 132.583 426.503 132.555 426.503C132.527 426.503 132.499 426.496 132.474 426.484ZM134.384 422.013C134.274 422.006 134.163 422.022 134.06 422.059C133.956 422.096 133.861 422.153 133.782 422.228C133.068 423.289 132.718 424.543 132.783 425.81C133.922 424.997 134.717 423.804 135.016 422.457C135.016 422.3 134.913 422.099 134.531 422.028L134.384 422.013Z" fill="#407BFF"/>
    <path opacity="0.2" d="M135.265 411.582L133.708 421.082L120.384 418.632L121.456 407.885L135.265 411.582Z" fill="black"/>
    <path d="M71.449 220.127C71.449 226.947 70.6263 233.423 66.3219 236.461C72.275 241.417 78.9236 245.518 86.0662 248.64C93.7054 243.353 90.1796 238.983 90.1796 238.983C83.4954 235.415 85.5814 227.061 87.6675 221.789C87.6675 221.789 86.0222 219.195 76.6495 219.167C72.492 219.095 71.449 220.127 71.449 220.127Z" fill="#E4897B"/>
    <path d="M35.3832 318.362C35.3832 318.362 21.7209 356.045 60.4456 356.045C99.1704 356.045 102.299 341.316 99.0234 323.978L35.3832 318.362Z" fill="#2E353A"/>
    <path d="M99.0234 323.821C99.0234 323.821 140.304 325.512 151.087 339.367C161.87 353.223 136.602 419.821 136.602 419.821L116.314 415.05C116.314 415.05 127.465 369.643 123.263 363.768C119.062 357.894 96.2322 357.535 65.3817 355.959C34.5312 354.383 99.0234 323.821 99.0234 323.821Z" fill="#2E353A"/>
    <path d="M62.517 235.343L66.366 226.531C66.366 226.531 88.3286 227.305 94.9982 237.063C101.668 246.82 62.517 235.343 62.517 235.343Z" fill="#407BFF"/>
    <path d="M107.309 248.755C107.97 259.773 107.309 282.412 99.0234 323.978L35.3833 318.362C35.7946 309.578 49.266 279.475 46.4013 239.842C46.2952 238.438 46.4742 237.028 46.928 235.691C47.3818 234.355 48.1015 233.119 49.0459 232.054C49.9902 230.989 51.1406 230.116 52.4313 229.486C53.7219 228.855 55.1274 228.48 56.5673 228.38H56.9345C60.0637 228.265 79.1469 233.767 88.1083 235.085C91.5606 235.701 94.91 236.518 97.76 237.306C100.376 238.006 102.703 239.485 104.415 241.538C106.128 243.591 107.139 246.114 107.309 248.755Z" fill="#407BFF"/>
    <path opacity="0.2" d="M107.309 248.755C107.97 259.773 107.309 282.412 99.0234 323.978L35.3833 318.362C35.7946 309.578 49.266 279.475 46.4013 239.842C46.2952 238.438 46.4742 237.028 46.928 235.691C47.3818 234.355 48.1015 233.119 49.0459 232.054C49.9902 230.989 51.1406 230.116 52.4313 229.486C53.7219 228.855 55.1274 228.48 56.5673 228.38H56.9345C60.0637 228.265 79.1469 233.767 88.1083 235.085C91.5606 235.701 94.91 236.518 97.76 237.306C100.376 238.006 102.703 239.485 104.415 241.538C106.128 243.591 107.139 246.114 107.309 248.755Z" fill="black"/>
    <path d="M97.76 237.306C90.7673 235.873 89.9886 255.761 95.0716 261.493C100.155 267.224 127.259 271.522 127.259 271.522L132.283 253.612C132.283 253.612 109.997 239.885 97.76 237.306Z" fill="#407BFF"/>
    <path d="M68.7018 219.424C68.7018 219.424 59.7551 217.032 55.5977 198.304C51.4402 179.577 69.7301 171.224 90.4587 175.279C111.187 179.334 101.051 208.234 83.0106 219.424C78.3792 221.008 73.3332 221.008 68.7018 219.424Z" fill="#2E353A"/>
    <path d="M91.3402 204.222C91.8373 206.545 93.2245 208.595 95.2186 209.953C97.76 211.587 99.7286 209.094 99.6258 205.884C99.5082 203.019 98.0539 198.648 95.2186 198.333C92.3832 198.018 90.6351 201.184 91.3402 204.222Z" fill="#E4897B"/>
    <path d="M66.6745 459.94H75.8562L77.6484 384.817L78.1773 362.507H64.3681L64.8969 384.817L66.6745 459.94Z" fill="#407BFF"/>
    <path opacity="0.4" d="M66.6745 459.94H75.8562L77.6484 384.817L78.1773 362.507H64.3681L64.8969 384.817L66.6745 459.94Z" fill="white"/>
    <path opacity="0.2" d="M78.1773 362.507L77.6484 385.433H64.8969L64.3681 362.507H78.1773Z" fill="black"/>
    <path d="M119.796 459.94L113.993 364.084H101.991L110.115 459.94H119.796Z" fill="#407BFF"/>
    <path opacity="0.5" d="M110.1 459.94H119.796L114.654 374.973L113.993 363.94H101.991L102.917 374.973L110.1 459.94Z" fill="white"/>
    <path opacity="0.2" d="M101.991 363.94L102.917 375.403H114.654L113.993 363.94H101.991Z" fill="black"/>
    <path d="M32.4157 459.94L40.5397 364.084H28.5374L22.7492 459.94H32.4157Z" fill="#407BFF"/>
    <path opacity="0.5" d="M32.4451 459.94L39.6142 374.973L40.5397 363.94H28.5374L27.8763 374.973L22.7492 459.94H32.4451Z" fill="white"/>
    <path opacity="0.2" d="M40.5397 363.94L39.6142 375.403H27.8763L28.5374 363.94H40.5397Z" fill="black"/>
    <path d="M29.4629 351.518H113.082C114.047 351.518 115.002 351.703 115.893 352.063C116.785 352.423 117.594 352.951 118.276 353.616C118.959 354.281 119.5 355.071 119.869 355.94C120.238 356.809 120.428 357.741 120.428 358.682V368.239H22.1175V358.653C22.1253 356.758 22.9026 354.943 24.2793 353.606C25.656 352.268 27.5199 351.518 29.4629 351.518Z" fill="#407BFF"/>
    <path d="M60.6824 259.34L53.405 260.313L67.8239 362.976L75.1013 362.004L60.6824 259.34Z" fill="#407BFF"/>
    <path d="M15.1365 259.336L7.85911 260.309L22.278 362.972L29.5554 362L15.1365 259.336Z" fill="#407BFF"/>
    <g opacity="0.4">
        <path opacity="0.4" d="M60.6824 259.34L53.405 260.313L67.8239 362.976L75.1013 362.004L60.6824 259.34Z" fill="white"/>
    </g>
    <g opacity="0.4">
        <path opacity="0.4" d="M15.1365 259.336L7.85911 260.308L22.278 362.972L29.5554 362L15.1365 259.336Z" fill="white"/>
    </g>
    <path d="M122.176 359.9H20.3546C18.7238 359.9 17.4018 361.189 17.4018 362.78V365.387C17.4018 366.978 18.7238 368.267 20.3546 368.267H122.176C123.807 368.267 125.129 366.978 125.129 365.387V362.78C125.129 361.189 123.807 359.9 122.176 359.9Z" fill="#407BFF"/>
    <path opacity="0.6" d="M122.176 359.9H20.3546C18.7238 359.9 17.4018 361.189 17.4018 362.78V365.387C17.4018 366.978 18.7238 368.267 20.3546 368.267H122.176C123.807 368.267 125.129 366.978 125.129 365.387V362.78C125.129 361.189 123.807 359.9 122.176 359.9Z" fill="white"/>
    <path d="M70.8467 294.147H5.48763L0.257732 254.371H65.6168L70.8467 294.147Z" fill="#407BFF"/>
    <path opacity="0.6" d="M70.8467 294.147H5.48763L0.257732 254.371H65.6168L70.8467 294.147Z" fill="white"/>
</svg>
